<svg width="515" height="489" viewBox="0 0 515 489" fill="none" xmlns="http://www.w3.org/2000/svg">
<path d="M79.6055 369.862L47.2717 205.029C45.6144 196.58 55.4669 190.716 62.1029 196.201L109.699 235.542C133.659 255.347 166.573 260.36 195.343 248.587L200.571 246.448C215.782 240.224 229.404 230.669 240.435 218.487L267.035 189.115C280.309 163.796 291.866 137.974 301.833 111.247C302.942 108.272 307.061 107.973 308.561 110.772L326.522 144.295L353.641 129.715C356.132 128.376 359.137 130.243 359.04 133.069L358.019 162.844L370.574 172.639L463.298 97.0225L397.217 196.766L424.645 232.94C424.989 233.394 425.374 233.814 425.796 234.196L458.76 264.048C462.363 267.311 464.523 271.872 464.763 276.727L465.373 289.042C465.614 293.897 463.916 298.649 460.653 302.252L442.396 322.412C440.575 324.423 438.329 326.005 435.822 327.043L430.604 329.204C426.884 330.744 422.611 330.003 419.627 327.301C408.886 317.574 395.557 311.167 381.252 308.854L317.081 298.481C271.6 334.169 236.547 384.288 195.297 425.391C192.609 428.069 188.534 428.751 185.093 427.154L89.8747 382.959C84.5526 380.489 80.7349 375.62 79.6055 369.862Z" fill="#F3F4F7"/>
<path d="M341.402 220.166C341.118 221.607 339.366 221.878 338.501 220.692C330.624 209.897 327.34 206.924 315.82 200.152C314.554 199.408 314.651 197.638 316.056 197.214C320.661 195.823 329.314 194.442 336.082 200.57C342.85 206.699 342.331 215.447 341.402 220.166Z" fill="#F3F4F7"/>
<path d="M317.081 298.481L381.252 308.854C395.557 311.167 408.886 317.574 419.627 327.301C422.611 330.003 426.884 330.744 430.604 329.204L435.822 327.043C438.329 326.005 440.575 324.423 442.396 322.412L460.653 302.252C463.916 298.649 465.614 293.897 465.373 289.042L464.763 276.727C464.523 271.872 462.363 267.311 458.76 264.048L425.796 234.196C425.374 233.814 424.989 233.394 424.645 232.94L397.217 196.766M317.081 298.481C317.081 298.481 304.833 297.167 297.654 295.586C290.475 294.006 281.361 289.231 281.361 289.231M317.081 298.481C271.6 334.169 236.547 384.288 195.297 425.391C192.609 428.069 188.534 428.751 185.093 427.154L89.8747 382.959C84.5526 380.489 80.7349 375.62 79.6055 369.862L47.2717 205.029C45.6144 196.58 55.4669 190.716 62.1029 196.201L109.699 235.542C133.659 255.347 166.573 260.36 195.343 248.587L200.571 246.448C215.781 240.224 229.404 230.669 240.435 218.487L267.035 189.115C280.309 163.796 291.866 137.974 301.833 111.247C302.942 108.272 307.061 107.973 308.561 110.772L326.522 144.295L353.641 129.715C356.132 128.376 359.137 130.243 359.04 133.069L358.019 162.844L370.574 172.639M397.217 196.766L463.298 97.0225L370.574 172.639M397.217 196.766L384.61 215.797C366.996 210.345 360.049 204.054 352.883 187.065L370.574 172.639M336.082 200.57C329.314 194.442 320.661 195.823 316.056 197.214C314.651 197.638 314.554 199.408 315.82 200.152C327.34 206.924 330.624 209.897 338.501 220.692C339.366 221.878 341.118 221.607 341.402 220.166C342.331 215.447 342.85 206.699 336.082 200.57Z" stroke="#1D1E2C" stroke-opacity="0.15" stroke-width="1.36347" stroke-linecap="round" stroke-linejoin="round"/>
</svg>
