<svg width="1400" height="635" viewBox="0 0 1400 635" fill="none" xmlns="http://www.w3.org/2000/svg">
<circle opacity="0.4" cx="2.5" cy="2.5" r="1.5" fill="#9A9FB8"/>
<circle opacity="0.4" cx="47.5" cy="2.5" r="1.5" fill="#9A9FB8"/>
<circle opacity="0.4" cx="92.5" cy="2.5" r="1.5" fill="#9A9FB8"/>
<circle opacity="0.4" cx="137.5" cy="2.5" r="1.5" fill="#9A9FB8"/>
<circle opacity="0.4" cx="182.5" cy="2.5" r="1.5" fill="#9A9FB8"/>
<circle opacity="0.4" cx="227.5" cy="2.5" r="1.5" fill="#9A9FB8"/>
<circle opacity="0.4" cx="272.5" cy="2.5" r="1.5" fill="#9A9FB8"/>
<circle opacity="0.4" cx="317.5" cy="2.5" r="1.5" fill="#9A9FB8"/>
<circle opacity="0.4" cx="362.5" cy="2.5" r="1.5" fill="#9A9FB8"/>
<circle opacity="0.4" cx="407.5" cy="2.5" r="1.5" fill="#9A9FB8"/>
<circle opacity="0.4" cx="452.5" cy="2.5" r="1.5" fill="#9A9FB8"/>
<circle opacity="0.4" cx="497.5" cy="2.5" r="1.5" fill="#9A9FB8"/>
<circle opacity="0.4" cx="542.5" cy="2.5" r="1.5" fill="#9A9FB8"/>
<circle opacity="0.4" cx="587.5" cy="2.5" r="1.5" fill="#9A9FB8"/>
<circle opacity="0.4" cx="632.5" cy="2.5" r="1.5" fill="#9A9FB8"/>
<circle opacity="0.4" cx="677.5" cy="2.5" r="1.5" fill="#9A9FB8"/>
<circle opacity="0.4" cx="722.5" cy="2.5" r="1.5" fill="#9A9FB8"/>
<circle opacity="0.4" cx="767.5" cy="2.5" r="1.5" fill="#9A9FB8"/>
<circle opacity="0.4" cx="812.5" cy="2.5" r="1.5" fill="#9A9FB8"/>
<circle opacity="0.4" cx="857.5" cy="2.5" r="1.5" fill="#9A9FB8"/>
<circle opacity="0.4" cx="902.5" cy="2.5" r="1.5" fill="#9A9FB8"/>
<circle opacity="0.4" cx="947.5" cy="2.5" r="1.5" fill="#9A9FB8"/>
<circle opacity="0.4" cx="992.5" cy="2.5" r="1.5" fill="#9A9FB8"/>
<circle opacity="0.4" cx="1037.5" cy="2.5" r="1.5" fill="#9A9FB8"/>
<circle opacity="0.4" cx="1082.5" cy="2.5" r="1.5" fill="#9A9FB8"/>
<circle opacity="0.4" cx="1127.5" cy="2.5" r="1.5" fill="#9A9FB8"/>
<circle opacity="0.4" cx="1172.5" cy="2.5" r="1.5" fill="#9A9FB8"/>
<circle opacity="0.4" cx="1217.5" cy="2.5" r="1.5" fill="#9A9FB8"/>
<circle opacity="0.4" cx="1262.5" cy="2.5" r="1.5" fill="#9A9FB8"/>
<circle opacity="0.4" cx="1307.5" cy="2.5" r="1.5" fill="#9A9FB8"/>
<circle opacity="0.4" cx="1352.5" cy="2.5" r="1.5" fill="#9A9FB8"/>
<circle opacity="0.4" cx="1397.5" cy="2.5" r="1.5" fill="#9A9FB8"/>
<circle opacity="0.4" cx="2.5" cy="47.5" r="1.5" fill="#9A9FB8"/>
<circle opacity="0.4" cx="47.5" cy="47.5" r="1.5" fill="#9A9FB8"/>
<circle opacity="0.4" cx="92.5" cy="47.5" r="1.5" fill="#9A9FB8"/>
<circle opacity="0.4" cx="137.5" cy="47.5" r="1.5" fill="#9A9FB8"/>
<circle opacity="0.4" cx="182.5" cy="47.5" r="1.5" fill="#9A9FB8"/>
<circle opacity="0.4" cx="227.5" cy="47.5" r="1.5" fill="#9A9FB8"/>
<circle opacity="0.4" cx="272.5" cy="47.5" r="1.5" fill="#9A9FB8"/>
<circle opacity="0.4" cx="317.5" cy="47.5" r="1.5" fill="#9A9FB8"/>
<circle opacity="0.4" cx="362.5" cy="47.5" r="1.5" fill="#9A9FB8"/>
<circle opacity="0.4" cx="407.5" cy="47.5" r="1.5" fill="#9A9FB8"/>
<circle opacity="0.4" cx="452.5" cy="47.5" r="1.5" fill="#9A9FB8"/>
<circle opacity="0.4" cx="497.5" cy="47.5" r="1.5" fill="#9A9FB8"/>
<circle opacity="0.4" cx="542.5" cy="47.5" r="1.5" fill="#9A9FB8"/>
<circle opacity="0.4" cx="587.5" cy="47.5" r="1.5" fill="#9A9FB8"/>
<circle opacity="0.4" cx="632.5" cy="47.5" r="1.5" fill="#9A9FB8"/>
<circle opacity="0.4" cx="677.5" cy="47.5" r="1.5" fill="#9A9FB8"/>
<circle opacity="0.4" cx="722.5" cy="47.5" r="1.5" fill="#9A9FB8"/>
<circle opacity="0.4" cx="767.5" cy="47.5" r="1.5" fill="#9A9FB8"/>
<circle opacity="0.4" cx="812.5" cy="47.5" r="1.5" fill="#9A9FB8"/>
<circle opacity="0.4" cx="857.5" cy="47.5" r="1.5" fill="#9A9FB8"/>
<circle opacity="0.4" cx="902.5" cy="47.5" r="1.5" fill="#9A9FB8"/>
<circle opacity="0.4" cx="947.5" cy="47.5" r="1.5" fill="#9A9FB8"/>
<circle opacity="0.4" cx="992.5" cy="47.5" r="1.5" fill="#9A9FB8"/>
<circle opacity="0.4" cx="1037.5" cy="47.5" r="1.5" fill="#9A9FB8"/>
<circle opacity="0.4" cx="1082.5" cy="47.5" r="1.5" fill="#9A9FB8"/>
<circle opacity="0.4" cx="1127.5" cy="47.5" r="1.5" fill="#9A9FB8"/>
<circle opacity="0.4" cx="1172.5" cy="47.5" r="1.5" fill="#9A9FB8"/>
<circle opacity="0.4" cx="1217.5" cy="47.5" r="1.5" fill="#9A9FB8"/>
<circle opacity="0.4" cx="1262.5" cy="47.5" r="1.5" fill="#9A9FB8"/>
<circle opacity="0.4" cx="1307.5" cy="47.5" r="1.5" fill="#9A9FB8"/>
<circle opacity="0.4" cx="1352.5" cy="47.5" r="1.5" fill="#9A9FB8"/>
<circle opacity="0.4" cx="1397.5" cy="47.5" r="1.5" fill="#9A9FB8"/>
<circle opacity="0.4" cx="2.5" cy="92.5" r="1.5" fill="#9A9FB8"/>
<circle opacity="0.4" cx="47.5" cy="92.5" r="1.5" fill="#9A9FB8"/>
<circle opacity="0.4" cx="92.5" cy="92.5" r="1.5" fill="#9A9FB8"/>
<circle opacity="0.4" cx="137.5" cy="92.5" r="1.5" fill="#9A9FB8"/>
<circle opacity="0.4" cx="182.5" cy="92.5" r="1.5" fill="#9A9FB8"/>
<circle opacity="0.4" cx="227.5" cy="92.5" r="1.5" fill="#9A9FB8"/>
<circle opacity="0.4" cx="272.5" cy="92.5" r="1.5" fill="#9A9FB8"/>
<circle opacity="0.4" cx="317.5" cy="92.5" r="1.5" fill="#9A9FB8"/>
<circle opacity="0.4" cx="362.5" cy="92.5" r="1.5" fill="#9A9FB8"/>
<circle opacity="0.4" cx="407.5" cy="92.5" r="1.5" fill="#9A9FB8"/>
<circle opacity="0.4" cx="452.5" cy="92.5" r="1.5" fill="#9A9FB8"/>
<circle opacity="0.4" cx="497.5" cy="92.5" r="1.5" fill="#9A9FB8"/>
<circle opacity="0.4" cx="542.5" cy="92.5" r="1.5" fill="#9A9FB8"/>
<circle opacity="0.4" cx="587.5" cy="92.5" r="1.5" fill="#9A9FB8"/>
<circle opacity="0.4" cx="632.5" cy="92.5" r="1.5" fill="#9A9FB8"/>
<circle opacity="0.4" cx="677.5" cy="92.5" r="1.5" fill="#9A9FB8"/>
<circle opacity="0.4" cx="722.5" cy="92.5" r="1.5" fill="#9A9FB8"/>
<circle opacity="0.4" cx="767.5" cy="92.5" r="1.5" fill="#9A9FB8"/>
<circle opacity="0.4" cx="812.5" cy="92.5" r="1.5" fill="#9A9FB8"/>
<circle opacity="0.4" cx="857.5" cy="92.5" r="1.5" fill="#9A9FB8"/>
<circle opacity="0.4" cx="902.5" cy="92.5" r="1.5" fill="#9A9FB8"/>
<circle opacity="0.4" cx="947.5" cy="92.5" r="1.5" fill="#9A9FB8"/>
<circle opacity="0.4" cx="992.5" cy="92.5" r="1.5" fill="#9A9FB8"/>
<circle opacity="0.4" cx="1037.5" cy="92.5" r="1.5" fill="#9A9FB8"/>
<circle opacity="0.4" cx="1082.5" cy="92.5" r="1.5" fill="#9A9FB8"/>
<circle opacity="0.4" cx="1127.5" cy="92.5" r="1.5" fill="#9A9FB8"/>
<circle opacity="0.4" cx="1172.5" cy="92.5" r="1.5" fill="#9A9FB8"/>
<circle opacity="0.4" cx="1217.5" cy="92.5" r="1.5" fill="#9A9FB8"/>
<circle opacity="0.4" cx="1262.5" cy="92.5" r="1.5" fill="#9A9FB8"/>
<circle opacity="0.4" cx="1307.5" cy="92.5" r="1.5" fill="#9A9FB8"/>
<circle opacity="0.4" cx="1352.5" cy="92.5" r="1.5" fill="#9A9FB8"/>
<circle opacity="0.4" cx="1397.5" cy="92.5" r="1.5" fill="#9A9FB8"/>
<circle opacity="0.4" cx="2.5" cy="137.5" r="1.5" fill="#9A9FB8"/>
<circle opacity="0.4" cx="47.5" cy="137.5" r="1.5" fill="#9A9FB8"/>
<circle opacity="0.4" cx="92.5" cy="137.5" r="1.5" fill="#9A9FB8"/>
<circle opacity="0.4" cx="137.5" cy="137.5" r="1.5" fill="#9A9FB8"/>
<circle opacity="0.4" cx="182.5" cy="137.5" r="1.5" fill="#9A9FB8"/>
<circle opacity="0.4" cx="227.5" cy="137.5" r="1.5" fill="#9A9FB8"/>
<circle opacity="0.4" cx="272.5" cy="137.5" r="1.5" fill="#9A9FB8"/>
<circle opacity="0.4" cx="317.5" cy="137.5" r="1.5" fill="#9A9FB8"/>
<circle opacity="0.4" cx="362.5" cy="137.5" r="1.5" fill="#9A9FB8"/>
<circle opacity="0.4" cx="407.5" cy="137.5" r="1.5" fill="#9A9FB8"/>
<circle opacity="0.4" cx="452.5" cy="137.5" r="1.5" fill="#9A9FB8"/>
<circle opacity="0.4" cx="497.5" cy="137.5" r="1.5" fill="#9A9FB8"/>
<circle opacity="0.4" cx="542.5" cy="137.5" r="1.5" fill="#9A9FB8"/>
<circle opacity="0.4" cx="587.5" cy="137.5" r="1.5" fill="#9A9FB8"/>
<circle opacity="0.4" cx="632.5" cy="137.5" r="1.5" fill="#9A9FB8"/>
<circle opacity="0.4" cx="677.5" cy="137.5" r="1.5" fill="#9A9FB8"/>
<circle opacity="0.4" cx="722.5" cy="137.5" r="1.5" fill="#9A9FB8"/>
<circle opacity="0.4" cx="767.5" cy="137.5" r="1.5" fill="#9A9FB8"/>
<circle opacity="0.4" cx="812.5" cy="137.5" r="1.5" fill="#9A9FB8"/>
<circle opacity="0.4" cx="857.5" cy="137.5" r="1.5" fill="#9A9FB8"/>
<circle opacity="0.4" cx="902.5" cy="137.5" r="1.5" fill="#9A9FB8"/>
<circle opacity="0.4" cx="947.5" cy="137.5" r="1.5" fill="#9A9FB8"/>
<circle opacity="0.4" cx="992.5" cy="137.5" r="1.5" fill="#9A9FB8"/>
<circle opacity="0.4" cx="1037.5" cy="137.5" r="1.5" fill="#9A9FB8"/>
<circle opacity="0.4" cx="1082.5" cy="137.5" r="1.5" fill="#9A9FB8"/>
<circle opacity="0.4" cx="1127.5" cy="137.5" r="1.5" fill="#9A9FB8"/>
<circle opacity="0.4" cx="1172.5" cy="137.5" r="1.5" fill="#9A9FB8"/>
<circle opacity="0.4" cx="1217.5" cy="137.5" r="1.5" fill="#9A9FB8"/>
<circle opacity="0.4" cx="1262.5" cy="137.5" r="1.5" fill="#9A9FB8"/>
<circle opacity="0.4" cx="1307.5" cy="137.5" r="1.5" fill="#9A9FB8"/>
<circle opacity="0.4" cx="1352.5" cy="137.5" r="1.5" fill="#9A9FB8"/>
<circle opacity="0.4" cx="1397.5" cy="137.5" r="1.5" fill="#9A9FB8"/>
<circle opacity="0.4" cx="2.5" cy="182.5" r="1.5" fill="#9A9FB8"/>
<circle opacity="0.4" cx="47.5" cy="182.5" r="1.5" fill="#9A9FB8"/>
<circle opacity="0.4" cx="92.5" cy="182.5" r="1.5" fill="#9A9FB8"/>
<circle opacity="0.4" cx="137.5" cy="182.5" r="1.5" fill="#9A9FB8"/>
<circle opacity="0.4" cx="182.5" cy="182.5" r="1.5" fill="#9A9FB8"/>
<circle opacity="0.4" cx="227.5" cy="182.5" r="1.5" fill="#9A9FB8"/>
<circle opacity="0.4" cx="272.5" cy="182.5" r="1.5" fill="#9A9FB8"/>
<circle opacity="0.4" cx="317.5" cy="182.5" r="1.5" fill="#9A9FB8"/>
<circle opacity="0.4" cx="362.5" cy="182.5" r="1.5" fill="#9A9FB8"/>
<circle opacity="0.4" cx="407.5" cy="182.5" r="1.5" fill="#9A9FB8"/>
<circle opacity="0.4" cx="452.5" cy="182.5" r="1.5" fill="#9A9FB8"/>
<circle opacity="0.4" cx="497.5" cy="182.5" r="1.5" fill="#9A9FB8"/>
<circle opacity="0.4" cx="542.5" cy="182.5" r="1.5" fill="#9A9FB8"/>
<circle opacity="0.4" cx="587.5" cy="182.5" r="1.5" fill="#9A9FB8"/>
<circle opacity="0.4" cx="632.5" cy="182.5" r="1.5" fill="#9A9FB8"/>
<circle opacity="0.4" cx="677.5" cy="182.5" r="1.5" fill="#9A9FB8"/>
<circle opacity="0.4" cx="722.5" cy="182.5" r="1.5" fill="#9A9FB8"/>
<circle opacity="0.4" cx="767.5" cy="182.5" r="1.5" fill="#9A9FB8"/>
<circle opacity="0.4" cx="812.5" cy="182.5" r="1.5" fill="#9A9FB8"/>
<circle opacity="0.4" cx="857.5" cy="182.5" r="1.5" fill="#9A9FB8"/>
<circle opacity="0.4" cx="902.5" cy="182.5" r="1.5" fill="#9A9FB8"/>
<circle opacity="0.4" cx="947.5" cy="182.5" r="1.5" fill="#9A9FB8"/>
<circle opacity="0.4" cx="992.5" cy="182.5" r="1.5" fill="#9A9FB8"/>
<circle opacity="0.4" cx="1037.5" cy="182.5" r="1.5" fill="#9A9FB8"/>
<circle opacity="0.4" cx="1082.5" cy="182.5" r="1.5" fill="#9A9FB8"/>
<circle opacity="0.4" cx="1127.5" cy="182.5" r="1.5" fill="#9A9FB8"/>
<circle opacity="0.4" cx="1172.5" cy="182.5" r="1.5" fill="#9A9FB8"/>
<circle opacity="0.4" cx="1217.5" cy="182.5" r="1.5" fill="#9A9FB8"/>
<circle opacity="0.4" cx="1262.5" cy="182.5" r="1.5" fill="#9A9FB8"/>
<circle opacity="0.4" cx="1307.5" cy="182.5" r="1.5" fill="#9A9FB8"/>
<circle opacity="0.4" cx="1352.5" cy="182.5" r="1.5" fill="#9A9FB8"/>
<circle opacity="0.4" cx="1397.5" cy="182.5" r="1.5" fill="#9A9FB8"/>
<circle opacity="0.4" cx="2.5" cy="227.5" r="1.5" fill="#9A9FB8"/>
<circle opacity="0.4" cx="47.5" cy="227.5" r="1.5" fill="#9A9FB8"/>
<circle opacity="0.4" cx="92.5" cy="227.5" r="1.5" fill="#9A9FB8"/>
<circle opacity="0.4" cx="137.5" cy="227.5" r="1.5" fill="#9A9FB8"/>
<circle opacity="0.4" cx="182.5" cy="227.5" r="1.5" fill="#9A9FB8"/>
<circle opacity="0.4" cx="227.5" cy="227.5" r="1.5" fill="#9A9FB8"/>
<circle opacity="0.4" cx="272.5" cy="227.5" r="1.5" fill="#9A9FB8"/>
<circle opacity="0.4" cx="317.5" cy="227.5" r="1.5" fill="#9A9FB8"/>
<circle opacity="0.4" cx="362.5" cy="227.5" r="1.5" fill="#9A9FB8"/>
<circle opacity="0.4" cx="407.5" cy="227.5" r="1.5" fill="#9A9FB8"/>
<circle opacity="0.4" cx="452.5" cy="227.5" r="1.5" fill="#9A9FB8"/>
<circle opacity="0.4" cx="497.5" cy="227.5" r="1.5" fill="#9A9FB8"/>
<circle opacity="0.4" cx="542.5" cy="227.5" r="1.5" fill="#9A9FB8"/>
<circle opacity="0.4" cx="587.5" cy="227.5" r="1.5" fill="#9A9FB8"/>
<circle opacity="0.4" cx="632.5" cy="227.5" r="1.5" fill="#9A9FB8"/>
<circle opacity="0.4" cx="677.5" cy="227.5" r="1.5" fill="#9A9FB8"/>
<circle opacity="0.4" cx="722.5" cy="227.5" r="1.5" fill="#9A9FB8"/>
<circle opacity="0.4" cx="767.5" cy="227.5" r="1.5" fill="#9A9FB8"/>
<circle opacity="0.4" cx="812.5" cy="227.5" r="1.5" fill="#9A9FB8"/>
<circle opacity="0.4" cx="857.5" cy="227.5" r="1.5" fill="#9A9FB8"/>
<circle opacity="0.4" cx="902.5" cy="227.5" r="1.5" fill="#9A9FB8"/>
<circle opacity="0.4" cx="947.5" cy="227.5" r="1.5" fill="#9A9FB8"/>
<circle opacity="0.4" cx="992.5" cy="227.5" r="1.5" fill="#9A9FB8"/>
<circle opacity="0.4" cx="1037.5" cy="227.5" r="1.5" fill="#9A9FB8"/>
<circle opacity="0.4" cx="1082.5" cy="227.5" r="1.5" fill="#9A9FB8"/>
<circle opacity="0.4" cx="1127.5" cy="227.5" r="1.5" fill="#9A9FB8"/>
<circle opacity="0.4" cx="1172.5" cy="227.5" r="1.5" fill="#9A9FB8"/>
<circle opacity="0.4" cx="1217.5" cy="227.5" r="1.5" fill="#9A9FB8"/>
<circle opacity="0.4" cx="1262.5" cy="227.5" r="1.5" fill="#9A9FB8"/>
<circle opacity="0.4" cx="1307.5" cy="227.5" r="1.5" fill="#9A9FB8"/>
<circle opacity="0.4" cx="1352.5" cy="227.5" r="1.5" fill="#9A9FB8"/>
<circle opacity="0.4" cx="1397.5" cy="227.5" r="1.5" fill="#9A9FB8"/>
<circle opacity="0.4" cx="2.5" cy="272.5" r="1.5" fill="#9A9FB8"/>
<circle opacity="0.4" cx="47.5" cy="272.5" r="1.5" fill="#9A9FB8"/>
<circle opacity="0.4" cx="92.5" cy="272.5" r="1.5" fill="#9A9FB8"/>
<circle opacity="0.4" cx="137.5" cy="272.5" r="1.5" fill="#9A9FB8"/>
<circle opacity="0.4" cx="182.5" cy="272.5" r="1.5" fill="#9A9FB8"/>
<circle opacity="0.4" cx="227.5" cy="272.5" r="1.5" fill="#9A9FB8"/>
<circle opacity="0.4" cx="272.5" cy="272.5" r="1.5" fill="#9A9FB8"/>
<circle opacity="0.4" cx="317.5" cy="272.5" r="1.5" fill="#9A9FB8"/>
<circle opacity="0.4" cx="362.5" cy="272.5" r="1.5" fill="#9A9FB8"/>
<circle opacity="0.4" cx="407.5" cy="272.5" r="1.5" fill="#9A9FB8"/>
<circle opacity="0.4" cx="452.5" cy="272.5" r="1.5" fill="#9A9FB8"/>
<circle opacity="0.4" cx="497.5" cy="272.5" r="1.5" fill="#9A9FB8"/>
<circle opacity="0.4" cx="542.5" cy="272.5" r="1.5" fill="#9A9FB8"/>
<circle opacity="0.4" cx="587.5" cy="272.5" r="1.5" fill="#9A9FB8"/>
<circle opacity="0.4" cx="632.5" cy="272.5" r="1.5" fill="#9A9FB8"/>
<circle opacity="0.4" cx="677.5" cy="272.5" r="1.5" fill="#9A9FB8"/>
<circle opacity="0.4" cx="722.5" cy="272.5" r="1.5" fill="#9A9FB8"/>
<circle opacity="0.4" cx="767.5" cy="272.5" r="1.5" fill="#9A9FB8"/>
<circle opacity="0.4" cx="812.5" cy="272.5" r="1.5" fill="#9A9FB8"/>
<circle opacity="0.4" cx="857.5" cy="272.5" r="1.5" fill="#9A9FB8"/>
<circle opacity="0.4" cx="902.5" cy="272.5" r="1.5" fill="#9A9FB8"/>
<circle opacity="0.4" cx="947.5" cy="272.5" r="1.5" fill="#9A9FB8"/>
<circle opacity="0.4" cx="992.5" cy="272.5" r="1.5" fill="#9A9FB8"/>
<circle opacity="0.4" cx="1037.5" cy="272.5" r="1.5" fill="#9A9FB8"/>
<circle opacity="0.4" cx="1082.5" cy="272.5" r="1.5" fill="#9A9FB8"/>
<circle opacity="0.4" cx="1127.5" cy="272.5" r="1.5" fill="#9A9FB8"/>
<circle opacity="0.4" cx="1172.5" cy="272.5" r="1.5" fill="#9A9FB8"/>
<circle opacity="0.4" cx="1217.5" cy="272.5" r="1.5" fill="#9A9FB8"/>
<circle opacity="0.4" cx="1262.5" cy="272.5" r="1.5" fill="#9A9FB8"/>
<circle opacity="0.4" cx="1307.5" cy="272.5" r="1.5" fill="#9A9FB8"/>
<circle opacity="0.4" cx="1352.5" cy="272.5" r="1.5" fill="#9A9FB8"/>
<circle opacity="0.4" cx="1397.5" cy="272.5" r="1.5" fill="#9A9FB8"/>
<circle opacity="0.4" cx="2.5" cy="317.5" r="1.5" fill="#9A9FB8"/>
<circle opacity="0.4" cx="47.5" cy="317.5" r="1.5" fill="#9A9FB8"/>
<circle opacity="0.4" cx="92.5" cy="317.5" r="1.5" fill="#9A9FB8"/>
<circle opacity="0.4" cx="137.5" cy="317.5" r="1.5" fill="#9A9FB8"/>
<circle opacity="0.4" cx="182.5" cy="317.5" r="1.5" fill="#9A9FB8"/>
<circle opacity="0.4" cx="227.5" cy="317.5" r="1.5" fill="#9A9FB8"/>
<circle opacity="0.4" cx="272.5" cy="317.5" r="1.5" fill="#9A9FB8"/>
<circle opacity="0.4" cx="317.5" cy="317.5" r="1.5" fill="#9A9FB8"/>
<circle opacity="0.4" cx="362.5" cy="317.5" r="1.5" fill="#9A9FB8"/>
<circle opacity="0.4" cx="407.5" cy="317.5" r="1.5" fill="#9A9FB8"/>
<circle opacity="0.4" cx="452.5" cy="317.5" r="1.5" fill="#9A9FB8"/>
<circle opacity="0.4" cx="497.5" cy="317.5" r="1.5" fill="#9A9FB8"/>
<circle opacity="0.4" cx="542.5" cy="317.5" r="1.5" fill="#9A9FB8"/>
<circle opacity="0.4" cx="587.5" cy="317.5" r="1.5" fill="#9A9FB8"/>
<circle opacity="0.4" cx="632.5" cy="317.5" r="1.5" fill="#9A9FB8"/>
<circle opacity="0.4" cx="677.5" cy="317.5" r="1.5" fill="#9A9FB8"/>
<circle opacity="0.4" cx="722.5" cy="317.5" r="1.5" fill="#9A9FB8"/>
<circle opacity="0.4" cx="767.5" cy="317.5" r="1.5" fill="#9A9FB8"/>
<circle opacity="0.4" cx="812.5" cy="317.5" r="1.5" fill="#9A9FB8"/>
<circle opacity="0.4" cx="857.5" cy="317.5" r="1.5" fill="#9A9FB8"/>
<circle opacity="0.4" cx="902.5" cy="317.5" r="1.5" fill="#9A9FB8"/>
<circle opacity="0.4" cx="947.5" cy="317.5" r="1.5" fill="#9A9FB8"/>
<circle opacity="0.4" cx="992.5" cy="317.5" r="1.5" fill="#9A9FB8"/>
<circle opacity="0.4" cx="1037.5" cy="317.5" r="1.5" fill="#9A9FB8"/>
<circle opacity="0.4" cx="1082.5" cy="317.5" r="1.5" fill="#9A9FB8"/>
<circle opacity="0.4" cx="1127.5" cy="317.5" r="1.5" fill="#9A9FB8"/>
<circle opacity="0.4" cx="1172.5" cy="317.5" r="1.5" fill="#9A9FB8"/>
<circle opacity="0.4" cx="1217.5" cy="317.5" r="1.5" fill="#9A9FB8"/>
<circle opacity="0.4" cx="1262.5" cy="317.5" r="1.5" fill="#9A9FB8"/>
<circle opacity="0.4" cx="1307.5" cy="317.5" r="1.5" fill="#9A9FB8"/>
<circle opacity="0.4" cx="1352.5" cy="317.5" r="1.5" fill="#9A9FB8"/>
<circle opacity="0.4" cx="1397.5" cy="317.5" r="1.5" fill="#9A9FB8"/>
<circle opacity="0.4" cx="2.5" cy="362.5" r="1.5" fill="#9A9FB8"/>
<circle opacity="0.4" cx="47.5" cy="362.5" r="1.5" fill="#9A9FB8"/>
<circle opacity="0.4" cx="92.5" cy="362.5" r="1.5" fill="#9A9FB8"/>
<circle opacity="0.4" cx="137.5" cy="362.5" r="1.5" fill="#9A9FB8"/>
<circle opacity="0.4" cx="182.5" cy="362.5" r="1.5" fill="#9A9FB8"/>
<circle opacity="0.4" cx="227.5" cy="362.5" r="1.5" fill="#9A9FB8"/>
<circle opacity="0.4" cx="272.5" cy="362.5" r="1.5" fill="#9A9FB8"/>
<circle opacity="0.4" cx="317.5" cy="362.5" r="1.5" fill="#9A9FB8"/>
<circle opacity="0.4" cx="362.5" cy="362.5" r="1.5" fill="#9A9FB8"/>
<circle opacity="0.4" cx="407.5" cy="362.5" r="1.5" fill="#9A9FB8"/>
<circle opacity="0.4" cx="452.5" cy="362.5" r="1.5" fill="#9A9FB8"/>
<circle opacity="0.4" cx="497.5" cy="362.5" r="1.5" fill="#9A9FB8"/>
<circle opacity="0.4" cx="542.5" cy="362.5" r="1.5" fill="#9A9FB8"/>
<circle opacity="0.4" cx="587.5" cy="362.5" r="1.5" fill="#9A9FB8"/>
<circle opacity="0.4" cx="632.5" cy="362.5" r="1.5" fill="#9A9FB8"/>
<circle opacity="0.4" cx="677.5" cy="362.5" r="1.5" fill="#9A9FB8"/>
<circle opacity="0.4" cx="722.5" cy="362.5" r="1.5" fill="#9A9FB8"/>
<circle opacity="0.4" cx="767.5" cy="362.5" r="1.5" fill="#9A9FB8"/>
<circle opacity="0.4" cx="812.5" cy="362.5" r="1.5" fill="#9A9FB8"/>
<circle opacity="0.4" cx="857.5" cy="362.5" r="1.5" fill="#9A9FB8"/>
<circle opacity="0.4" cx="902.5" cy="362.5" r="1.5" fill="#9A9FB8"/>
<circle opacity="0.4" cx="947.5" cy="362.5" r="1.5" fill="#9A9FB8"/>
<circle opacity="0.4" cx="992.5" cy="362.5" r="1.5" fill="#9A9FB8"/>
<circle opacity="0.4" cx="1037.5" cy="362.5" r="1.5" fill="#9A9FB8"/>
<circle opacity="0.4" cx="1082.5" cy="362.5" r="1.5" fill="#9A9FB8"/>
<circle opacity="0.4" cx="1127.5" cy="362.5" r="1.5" fill="#9A9FB8"/>
<circle opacity="0.4" cx="1172.5" cy="362.5" r="1.5" fill="#9A9FB8"/>
<circle opacity="0.4" cx="1217.5" cy="362.5" r="1.5" fill="#9A9FB8"/>
<circle opacity="0.4" cx="1262.5" cy="362.5" r="1.5" fill="#9A9FB8"/>
<circle opacity="0.4" cx="1307.5" cy="362.5" r="1.5" fill="#9A9FB8"/>
<circle opacity="0.4" cx="1352.5" cy="362.5" r="1.5" fill="#9A9FB8"/>
<circle opacity="0.4" cx="1397.5" cy="362.5" r="1.5" fill="#9A9FB8"/>
<circle opacity="0.4" cx="2.5" cy="407.5" r="1.5" fill="#9A9FB8"/>
<circle opacity="0.4" cx="47.5" cy="407.5" r="1.5" fill="#9A9FB8"/>
<circle opacity="0.4" cx="92.5" cy="407.5" r="1.5" fill="#9A9FB8"/>
<circle opacity="0.4" cx="137.5" cy="407.5" r="1.5" fill="#9A9FB8"/>
<circle opacity="0.4" cx="182.5" cy="407.5" r="1.5" fill="#9A9FB8"/>
<circle opacity="0.4" cx="227.5" cy="407.5" r="1.5" fill="#9A9FB8"/>
<circle opacity="0.4" cx="272.5" cy="407.5" r="1.5" fill="#9A9FB8"/>
<circle opacity="0.4" cx="317.5" cy="407.5" r="1.5" fill="#9A9FB8"/>
<circle opacity="0.4" cx="362.5" cy="407.5" r="1.5" fill="#9A9FB8"/>
<circle opacity="0.4" cx="407.5" cy="407.5" r="1.5" fill="#9A9FB8"/>
<circle opacity="0.4" cx="452.5" cy="407.5" r="1.5" fill="#9A9FB8"/>
<circle opacity="0.4" cx="497.5" cy="407.5" r="1.5" fill="#9A9FB8"/>
<circle opacity="0.4" cx="542.5" cy="407.5" r="1.5" fill="#9A9FB8"/>
<circle opacity="0.4" cx="587.5" cy="407.5" r="1.5" fill="#9A9FB8"/>
<circle opacity="0.4" cx="632.5" cy="407.5" r="1.5" fill="#9A9FB8"/>
<circle opacity="0.4" cx="677.5" cy="407.5" r="1.5" fill="#9A9FB8"/>
<circle opacity="0.4" cx="722.5" cy="407.5" r="1.5" fill="#9A9FB8"/>
<circle opacity="0.4" cx="767.5" cy="407.5" r="1.5" fill="#9A9FB8"/>
<circle opacity="0.4" cx="812.5" cy="407.5" r="1.5" fill="#9A9FB8"/>
<circle opacity="0.4" cx="857.5" cy="407.5" r="1.5" fill="#9A9FB8"/>
<circle opacity="0.4" cx="902.5" cy="407.5" r="1.5" fill="#9A9FB8"/>
<circle opacity="0.4" cx="947.5" cy="407.5" r="1.5" fill="#9A9FB8"/>
<circle opacity="0.4" cx="992.5" cy="407.5" r="1.5" fill="#9A9FB8"/>
<circle opacity="0.4" cx="1037.5" cy="407.5" r="1.5" fill="#9A9FB8"/>
<circle opacity="0.4" cx="1082.5" cy="407.5" r="1.5" fill="#9A9FB8"/>
<circle opacity="0.4" cx="1127.5" cy="407.5" r="1.5" fill="#9A9FB8"/>
<circle opacity="0.4" cx="1172.5" cy="407.5" r="1.5" fill="#9A9FB8"/>
<circle opacity="0.4" cx="1217.5" cy="407.5" r="1.5" fill="#9A9FB8"/>
<circle opacity="0.4" cx="1262.5" cy="407.5" r="1.5" fill="#9A9FB8"/>
<circle opacity="0.4" cx="1307.5" cy="407.5" r="1.5" fill="#9A9FB8"/>
<circle opacity="0.4" cx="1352.5" cy="407.5" r="1.5" fill="#9A9FB8"/>
<circle opacity="0.4" cx="1397.5" cy="407.5" r="1.5" fill="#9A9FB8"/>
<circle opacity="0.4" cx="2.5" cy="452.5" r="1.5" fill="#9A9FB8"/>
<circle opacity="0.4" cx="47.5" cy="452.5" r="1.5" fill="#9A9FB8"/>
<circle opacity="0.4" cx="92.5" cy="452.5" r="1.5" fill="#9A9FB8"/>
<circle opacity="0.4" cx="137.5" cy="452.5" r="1.5" fill="#9A9FB8"/>
<circle opacity="0.4" cx="182.5" cy="452.5" r="1.5" fill="#9A9FB8"/>
<circle opacity="0.4" cx="227.5" cy="452.5" r="1.5" fill="#9A9FB8"/>
<circle opacity="0.4" cx="272.5" cy="452.5" r="1.5" fill="#9A9FB8"/>
<circle opacity="0.4" cx="317.5" cy="452.5" r="1.5" fill="#9A9FB8"/>
<circle opacity="0.4" cx="362.5" cy="452.5" r="1.5" fill="#9A9FB8"/>
<circle opacity="0.4" cx="407.5" cy="452.5" r="1.5" fill="#9A9FB8"/>
<circle opacity="0.4" cx="452.5" cy="452.5" r="1.5" fill="#9A9FB8"/>
<circle opacity="0.4" cx="497.5" cy="452.5" r="1.5" fill="#9A9FB8"/>
<circle opacity="0.4" cx="542.5" cy="452.5" r="1.5" fill="#9A9FB8"/>
<circle opacity="0.4" cx="587.5" cy="452.5" r="1.5" fill="#9A9FB8"/>
<circle opacity="0.4" cx="632.5" cy="452.5" r="1.5" fill="#9A9FB8"/>
<circle opacity="0.4" cx="677.5" cy="452.5" r="1.5" fill="#9A9FB8"/>
<circle opacity="0.4" cx="722.5" cy="452.5" r="1.5" fill="#9A9FB8"/>
<circle opacity="0.4" cx="767.5" cy="452.5" r="1.5" fill="#9A9FB8"/>
<circle opacity="0.4" cx="812.5" cy="452.5" r="1.5" fill="#9A9FB8"/>
<circle opacity="0.4" cx="857.5" cy="452.5" r="1.5" fill="#9A9FB8"/>
<circle opacity="0.4" cx="902.5" cy="452.5" r="1.5" fill="#9A9FB8"/>
<circle opacity="0.4" cx="947.5" cy="452.5" r="1.5" fill="#9A9FB8"/>
<circle opacity="0.4" cx="992.5" cy="452.5" r="1.5" fill="#9A9FB8"/>
<circle opacity="0.4" cx="1037.5" cy="452.5" r="1.5" fill="#9A9FB8"/>
<circle opacity="0.4" cx="1082.5" cy="452.5" r="1.5" fill="#9A9FB8"/>
<circle opacity="0.4" cx="1127.5" cy="452.5" r="1.5" fill="#9A9FB8"/>
<circle opacity="0.4" cx="1172.5" cy="452.5" r="1.5" fill="#9A9FB8"/>
<circle opacity="0.4" cx="1217.5" cy="452.5" r="1.5" fill="#9A9FB8"/>
<circle opacity="0.4" cx="1262.5" cy="452.5" r="1.5" fill="#9A9FB8"/>
<circle opacity="0.4" cx="1307.5" cy="452.5" r="1.5" fill="#9A9FB8"/>
<circle opacity="0.4" cx="1352.5" cy="452.5" r="1.5" fill="#9A9FB8"/>
<circle opacity="0.4" cx="1397.5" cy="452.5" r="1.5" fill="#9A9FB8"/>
<circle opacity="0.4" cx="2.5" cy="497.5" r="1.5" fill="#9A9FB8"/>
<circle opacity="0.4" cx="47.5" cy="497.5" r="1.5" fill="#9A9FB8"/>
<circle opacity="0.4" cx="92.5" cy="497.5" r="1.5" fill="#9A9FB8"/>
<circle opacity="0.4" cx="137.5" cy="497.5" r="1.5" fill="#9A9FB8"/>
<circle opacity="0.4" cx="182.5" cy="497.5" r="1.5" fill="#9A9FB8"/>
<circle opacity="0.4" cx="227.5" cy="497.5" r="1.5" fill="#9A9FB8"/>
<circle opacity="0.4" cx="272.5" cy="497.5" r="1.5" fill="#9A9FB8"/>
<circle opacity="0.4" cx="317.5" cy="497.5" r="1.5" fill="#9A9FB8"/>
<circle opacity="0.4" cx="362.5" cy="497.5" r="1.5" fill="#9A9FB8"/>
<circle opacity="0.4" cx="407.5" cy="497.5" r="1.5" fill="#9A9FB8"/>
<circle opacity="0.4" cx="452.5" cy="497.5" r="1.5" fill="#9A9FB8"/>
<circle opacity="0.4" cx="497.5" cy="497.5" r="1.5" fill="#9A9FB8"/>
<circle opacity="0.4" cx="542.5" cy="497.5" r="1.5" fill="#9A9FB8"/>
<circle opacity="0.4" cx="587.5" cy="497.5" r="1.5" fill="#9A9FB8"/>
<circle opacity="0.4" cx="632.5" cy="497.5" r="1.5" fill="#9A9FB8"/>
<circle opacity="0.4" cx="677.5" cy="497.5" r="1.5" fill="#9A9FB8"/>
<circle opacity="0.4" cx="722.5" cy="497.5" r="1.5" fill="#9A9FB8"/>
<circle opacity="0.4" cx="767.5" cy="497.5" r="1.5" fill="#9A9FB8"/>
<circle opacity="0.4" cx="812.5" cy="497.5" r="1.5" fill="#9A9FB8"/>
<circle opacity="0.4" cx="857.5" cy="497.5" r="1.5" fill="#9A9FB8"/>
<circle opacity="0.4" cx="902.5" cy="497.5" r="1.5" fill="#9A9FB8"/>
<circle opacity="0.4" cx="947.5" cy="497.5" r="1.5" fill="#9A9FB8"/>
<circle opacity="0.4" cx="992.5" cy="497.5" r="1.5" fill="#9A9FB8"/>
<circle opacity="0.4" cx="1037.5" cy="497.5" r="1.5" fill="#9A9FB8"/>
<circle opacity="0.4" cx="1082.5" cy="497.5" r="1.5" fill="#9A9FB8"/>
<circle opacity="0.4" cx="1127.5" cy="497.5" r="1.5" fill="#9A9FB8"/>
<circle opacity="0.4" cx="1172.5" cy="497.5" r="1.5" fill="#9A9FB8"/>
<circle opacity="0.4" cx="1217.5" cy="497.5" r="1.5" fill="#9A9FB8"/>
<circle opacity="0.4" cx="1262.5" cy="497.5" r="1.5" fill="#9A9FB8"/>
<circle opacity="0.4" cx="1307.5" cy="497.5" r="1.5" fill="#9A9FB8"/>
<circle opacity="0.4" cx="1352.5" cy="497.5" r="1.5" fill="#9A9FB8"/>
<circle opacity="0.4" cx="1397.5" cy="497.5" r="1.5" fill="#9A9FB8"/>
<circle opacity="0.4" cx="2.5" cy="542.5" r="1.5" fill="#9A9FB8"/>
<circle opacity="0.4" cx="47.5" cy="542.5" r="1.5" fill="#9A9FB8"/>
<circle opacity="0.4" cx="92.5" cy="542.5" r="1.5" fill="#9A9FB8"/>
<circle opacity="0.4" cx="137.5" cy="542.5" r="1.5" fill="#9A9FB8"/>
<circle opacity="0.4" cx="182.5" cy="542.5" r="1.5" fill="#9A9FB8"/>
<circle opacity="0.4" cx="227.5" cy="542.5" r="1.5" fill="#9A9FB8"/>
<circle opacity="0.4" cx="272.5" cy="542.5" r="1.5" fill="#9A9FB8"/>
<circle opacity="0.4" cx="317.5" cy="542.5" r="1.5" fill="#9A9FB8"/>
<circle opacity="0.4" cx="362.5" cy="542.5" r="1.5" fill="#9A9FB8"/>
<circle opacity="0.4" cx="407.5" cy="542.5" r="1.5" fill="#9A9FB8"/>
<circle opacity="0.4" cx="452.5" cy="542.5" r="1.5" fill="#9A9FB8"/>
<circle opacity="0.4" cx="497.5" cy="542.5" r="1.5" fill="#9A9FB8"/>
<circle opacity="0.4" cx="542.5" cy="542.5" r="1.5" fill="#9A9FB8"/>
<circle opacity="0.4" cx="587.5" cy="542.5" r="1.5" fill="#9A9FB8"/>
<circle opacity="0.4" cx="632.5" cy="542.5" r="1.5" fill="#9A9FB8"/>
<circle opacity="0.4" cx="677.5" cy="542.5" r="1.5" fill="#9A9FB8"/>
<circle opacity="0.4" cx="722.5" cy="542.5" r="1.5" fill="#9A9FB8"/>
<circle opacity="0.4" cx="767.5" cy="542.5" r="1.5" fill="#9A9FB8"/>
<circle opacity="0.4" cx="812.5" cy="542.5" r="1.5" fill="#9A9FB8"/>
<circle opacity="0.4" cx="857.5" cy="542.5" r="1.5" fill="#9A9FB8"/>
<circle opacity="0.4" cx="902.5" cy="542.5" r="1.5" fill="#9A9FB8"/>
<circle opacity="0.4" cx="947.5" cy="542.5" r="1.5" fill="#9A9FB8"/>
<circle opacity="0.4" cx="992.5" cy="542.5" r="1.5" fill="#9A9FB8"/>
<circle opacity="0.4" cx="1037.5" cy="542.5" r="1.5" fill="#9A9FB8"/>
<circle opacity="0.4" cx="1082.5" cy="542.5" r="1.5" fill="#9A9FB8"/>
<circle opacity="0.4" cx="1127.5" cy="542.5" r="1.5" fill="#9A9FB8"/>
<circle opacity="0.4" cx="1172.5" cy="542.5" r="1.5" fill="#9A9FB8"/>
<circle opacity="0.4" cx="1217.5" cy="542.5" r="1.5" fill="#9A9FB8"/>
<circle opacity="0.4" cx="1262.5" cy="542.5" r="1.5" fill="#9A9FB8"/>
<circle opacity="0.4" cx="1307.5" cy="542.5" r="1.5" fill="#9A9FB8"/>
<circle opacity="0.4" cx="1352.5" cy="542.5" r="1.5" fill="#9A9FB8"/>
<circle opacity="0.4" cx="1397.5" cy="542.5" r="1.5" fill="#9A9FB8"/>
<circle opacity="0.4" cx="2.5" cy="587.5" r="1.5" fill="#9A9FB8"/>
<circle opacity="0.4" cx="47.5" cy="587.5" r="1.5" fill="#9A9FB8"/>
<circle opacity="0.4" cx="92.5" cy="587.5" r="1.5" fill="#9A9FB8"/>
<circle opacity="0.4" cx="137.5" cy="587.5" r="1.5" fill="#9A9FB8"/>
<circle opacity="0.4" cx="182.5" cy="587.5" r="1.5" fill="#9A9FB8"/>
<circle opacity="0.4" cx="227.5" cy="587.5" r="1.5" fill="#9A9FB8"/>
<circle opacity="0.4" cx="272.5" cy="587.5" r="1.5" fill="#9A9FB8"/>
<circle opacity="0.4" cx="317.5" cy="587.5" r="1.5" fill="#9A9FB8"/>
<circle opacity="0.4" cx="362.5" cy="587.5" r="1.5" fill="#9A9FB8"/>
<circle opacity="0.4" cx="407.5" cy="587.5" r="1.5" fill="#9A9FB8"/>
<circle opacity="0.4" cx="452.5" cy="587.5" r="1.5" fill="#9A9FB8"/>
<circle opacity="0.4" cx="497.5" cy="587.5" r="1.5" fill="#9A9FB8"/>
<circle opacity="0.4" cx="542.5" cy="587.5" r="1.5" fill="#9A9FB8"/>
<circle opacity="0.4" cx="587.5" cy="587.5" r="1.5" fill="#9A9FB8"/>
<circle opacity="0.4" cx="632.5" cy="587.5" r="1.5" fill="#9A9FB8"/>
<circle opacity="0.4" cx="677.5" cy="587.5" r="1.5" fill="#9A9FB8"/>
<circle opacity="0.4" cx="722.5" cy="587.5" r="1.5" fill="#9A9FB8"/>
<circle opacity="0.4" cx="767.5" cy="587.5" r="1.5" fill="#9A9FB8"/>
<circle opacity="0.4" cx="812.5" cy="587.5" r="1.5" fill="#9A9FB8"/>
<circle opacity="0.4" cx="857.5" cy="587.5" r="1.5" fill="#9A9FB8"/>
<circle opacity="0.4" cx="902.5" cy="587.5" r="1.5" fill="#9A9FB8"/>
<circle opacity="0.4" cx="947.5" cy="587.5" r="1.5" fill="#9A9FB8"/>
<circle opacity="0.4" cx="992.5" cy="587.5" r="1.5" fill="#9A9FB8"/>
<circle opacity="0.4" cx="1037.5" cy="587.5" r="1.5" fill="#9A9FB8"/>
<circle opacity="0.4" cx="1082.5" cy="587.5" r="1.5" fill="#9A9FB8"/>
<circle opacity="0.4" cx="1127.5" cy="587.5" r="1.5" fill="#9A9FB8"/>
<circle opacity="0.4" cx="1172.5" cy="587.5" r="1.5" fill="#9A9FB8"/>
<circle opacity="0.4" cx="1217.5" cy="587.5" r="1.5" fill="#9A9FB8"/>
<circle opacity="0.4" cx="1262.5" cy="587.5" r="1.5" fill="#9A9FB8"/>
<circle opacity="0.4" cx="1307.5" cy="587.5" r="1.5" fill="#9A9FB8"/>
<circle opacity="0.4" cx="1352.5" cy="587.5" r="1.5" fill="#9A9FB8"/>
<circle opacity="0.4" cx="1397.5" cy="587.5" r="1.5" fill="#9A9FB8"/>
<circle opacity="0.4" cx="2.5" cy="632.5" r="1.5" fill="#9A9FB8"/>
<circle opacity="0.4" cx="47.5" cy="632.5" r="1.5" fill="#9A9FB8"/>
<circle opacity="0.4" cx="92.5" cy="632.5" r="1.5" fill="#9A9FB8"/>
<circle opacity="0.4" cx="137.5" cy="632.5" r="1.5" fill="#9A9FB8"/>
<circle opacity="0.4" cx="182.5" cy="632.5" r="1.5" fill="#9A9FB8"/>
<circle opacity="0.4" cx="227.5" cy="632.5" r="1.5" fill="#9A9FB8"/>
<circle opacity="0.4" cx="272.5" cy="632.5" r="1.5" fill="#9A9FB8"/>
<circle opacity="0.4" cx="317.5" cy="632.5" r="1.5" fill="#9A9FB8"/>
<circle opacity="0.4" cx="362.5" cy="632.5" r="1.5" fill="#9A9FB8"/>
<circle opacity="0.4" cx="407.5" cy="632.5" r="1.5" fill="#9A9FB8"/>
<circle opacity="0.4" cx="452.5" cy="632.5" r="1.5" fill="#9A9FB8"/>
<circle opacity="0.4" cx="497.5" cy="632.5" r="1.5" fill="#9A9FB8"/>
<circle opacity="0.4" cx="542.5" cy="632.5" r="1.5" fill="#9A9FB8"/>
<circle opacity="0.4" cx="587.5" cy="632.5" r="1.5" fill="#9A9FB8"/>
<circle opacity="0.4" cx="632.5" cy="632.5" r="1.5" fill="#9A9FB8"/>
<circle opacity="0.4" cx="677.5" cy="632.5" r="1.5" fill="#9A9FB8"/>
<circle opacity="0.4" cx="722.5" cy="632.5" r="1.5" fill="#9A9FB8"/>
<circle opacity="0.4" cx="767.5" cy="632.5" r="1.5" fill="#9A9FB8"/>
<circle opacity="0.4" cx="812.5" cy="632.5" r="1.5" fill="#9A9FB8"/>
<circle opacity="0.4" cx="857.5" cy="632.5" r="1.5" fill="#9A9FB8"/>
<circle opacity="0.4" cx="902.5" cy="632.5" r="1.5" fill="#9A9FB8"/>
<circle opacity="0.4" cx="947.5" cy="632.5" r="1.5" fill="#9A9FB8"/>
<circle opacity="0.4" cx="992.5" cy="632.5" r="1.5" fill="#9A9FB8"/>
<circle opacity="0.4" cx="1037.5" cy="632.5" r="1.5" fill="#9A9FB8"/>
<circle opacity="0.4" cx="1082.5" cy="632.5" r="1.5" fill="#9A9FB8"/>
<circle opacity="0.4" cx="1127.5" cy="632.5" r="1.5" fill="#9A9FB8"/>
<circle opacity="0.4" cx="1172.5" cy="632.5" r="1.5" fill="#9A9FB8"/>
<circle opacity="0.4" cx="1217.5" cy="632.5" r="1.5" fill="#9A9FB8"/>
<circle opacity="0.4" cx="1262.5" cy="632.5" r="1.5" fill="#9A9FB8"/>
<circle opacity="0.4" cx="1307.5" cy="632.5" r="1.5" fill="#9A9FB8"/>
<circle opacity="0.4" cx="1352.5" cy="632.5" r="1.5" fill="#9A9FB8"/>
<circle opacity="0.4" cx="1397.5" cy="632.5" r="1.5" fill="#9A9FB8"/>
<path opacity="0.5" d="M98 587.5L105.5 591.83V583.17L98 587.5ZM138.25 504C138.25 503.586 137.914 503.25 137.5 503.25C137.086 503.25 136.75 503.586 136.75 504H138.25ZM104.75 588.25H117.5V586.75H104.75V588.25ZM138.25 567.5V504H136.75V567.5H138.25ZM117.5 588.25C128.96 588.25 138.25 578.96 138.25 567.5H136.75C136.75 578.131 128.131 586.75 117.5 586.75V588.25Z" fill="#9A9FB8"/>
<path opacity="0.5" d="M1173 541.75C1172.59 541.75 1172.25 542.086 1172.25 542.5C1172.25 542.914 1172.59 543.25 1173 543.25V541.75ZM1352.5 579.5L1356.83 572H1348.17L1352.5 579.5ZM1173 543.25H1332.5V541.75H1173V543.25ZM1351.75 562.5V572.75H1353.25V562.5H1351.75ZM1332.5 543.25C1343.13 543.25 1351.75 551.869 1351.75 562.5H1353.25C1353.25 551.04 1343.96 541.75 1332.5 541.75V543.25Z" fill="#9A9FB8"/>
<path opacity="0.5" d="M145.5 92.5L153 96.8301V88.1699L145.5 92.5ZM226.75 112.5V137.5H228.25V112.5H226.75ZM207.5 91.75H152.25V93.25H207.5V91.75ZM228.25 112.5C228.25 101.04 218.96 91.75 207.5 91.75V93.25C218.131 93.25 226.75 101.869 226.75 112.5H228.25Z" fill="#9A9FB8"/>
<path d="M1172.5 522C1173.99 532.643 1182.36 541.009 1193 542.5C1182.36 543.991 1173.99 552.357 1172.5 563C1171.01 552.357 1162.64 543.991 1152 542.5C1162.64 541.009 1171.01 532.643 1172.5 522Z" fill="#4FD787"/>
<path d="M227.5 117C228.991 127.643 237.357 136.009 248 137.5C237.357 138.991 228.991 147.357 227.5 158C226.009 147.357 217.643 138.991 207 137.5C217.643 136.009 226.009 127.643 227.5 117Z" fill="url(#paint0_linear_438_5792)"/>
<path d="M1127.5 441C1128.34 446.971 1133.03 451.664 1139 452.5C1133.03 453.336 1128.34 458.029 1127.5 464C1126.66 458.029 1121.97 453.336 1116 452.5C1121.97 451.664 1126.66 446.971 1127.5 441Z" fill="url(#paint1_linear_438_5792)"/>
<circle cx="1262.5" cy="452.5" r="19.5" stroke="#FFB443" stroke-width="2"/>
<circle cx="137.5" cy="92.5" r="7.5" fill="#FF206E"/>
<circle opacity="0.2" cx="47.5" cy="362.5" r="20.5" stroke="#9A9FB8" stroke-width="1.5"/>
<circle opacity="0.2" cx="317.5" cy="47.5" r="20.5" stroke="#9A9FB8" stroke-width="1.5"/>
<circle opacity="0.2" cx="992.5" cy="47.5" r="20.5" stroke="#9A9FB8" stroke-width="1.5"/>
<circle opacity="0.2" cx="1352.5" cy="362.5" r="20.5" stroke="#9A9FB8" stroke-width="1.5"/>
<circle cx="1352.5" cy="587.5" r="7.5" fill="#FF206E"/>
<path d="M1262.5 72C1263.99 82.6433 1272.36 91.009 1283 92.5C1272.36 93.991 1263.99 102.357 1262.5 113C1261.01 102.357 1252.64 93.991 1242 92.5C1252.64 91.009 1261.01 82.6433 1262.5 72Z" fill="#FFB443"/>
<circle cx="1127.5" cy="48.5" r="7.5" fill="#4FD787"/>
<path opacity="0.5" d="M1127.5 57.5L1123.17 65H1131.83L1127.5 57.5ZM1243.5 93.25C1243.91 93.25 1244.25 92.9142 1244.25 92.5C1244.25 92.0858 1243.91 91.75 1243.5 91.75V93.25ZM1126.75 64.25V72.5H1128.25V64.25H1126.75ZM1147.5 93.25H1243.5V91.75H1147.5V93.25ZM1126.75 72.5C1126.75 83.9599 1136.04 93.25 1147.5 93.25V91.75C1136.87 91.75 1128.25 83.1315 1128.25 72.5H1126.75Z" fill="#9A9FB8"/>
<rect x="1345" y="132" width="12" height="12" rx="3" fill="#FF206E"/>
<path d="M136.5 477C137.991 487.643 146.357 496.009 157 497.5C146.357 498.991 137.991 507.357 136.5 518C135.009 507.357 126.643 498.991 116 497.5C126.643 496.009 135.009 487.643 136.5 477Z" fill="#FF206E"/>
<circle cx="273.5" cy="588.5" r="19.5" stroke="#4FD787" stroke-width="2"/>
<rect x="85" y="582" width="12" height="12" rx="3" fill="#FFB443"/>
<rect x="86" y="176" width="12" height="12" rx="3" fill="#FFB443"/>
<defs>
<linearGradient id="paint0_linear_438_5792" x1="227.5" y1="117" x2="227.5" y2="158" gradientUnits="userSpaceOnUse">
<stop stop-color="#2AABEE"/>
<stop offset="1" stop-color="#229ED9"/>
</linearGradient>
<linearGradient id="paint1_linear_438_5792" x1="1127.5" y1="441" x2="1127.5" y2="464" gradientUnits="userSpaceOnUse">
<stop stop-color="#2AABEE"/>
<stop offset="1" stop-color="#229ED9"/>
</linearGradient>
</defs>
</svg>
