<svg width="224" height="48" viewBox="0 0 224 48" fill="none" xmlns="http://www.w3.org/2000/svg">
<g clip-path="url(#clip0_438_4968)">
<circle cx="24.0039" cy="24" r="24" fill="url(#paint0_linear_438_4968)"/>
<mask id="mask0_438_4968" style="mask-type:alpha" maskUnits="userSpaceOnUse" x="0" y="0" width="49" height="48">
<circle cx="24.0039" cy="24" r="24" fill="url(#paint1_linear_438_4968)"/>
</mask>
<g mask="url(#mask0_438_4968)">
<path d="M11.5985 62.8431L-6.52222 49.3176C-7.12452 48.868 -6.83063 47.9112 -6.07982 47.8773L4.6996 47.3901C7.4105 47.2676 9.83404 45.6633 11.0058 43.2156L12.5901 39.9061C13.2096 38.612 13.5312 37.1956 13.5312 35.7609V29.772C12.5992 26.1676 11.4513 22.6677 10.0631 19.2196C9.9596 18.9624 10.2083 18.7018 10.4694 18.7951L15.3026 20.5212L16.6907 16.6173C16.7734 16.3847 17.0773 16.3294 17.2366 16.518L19.8296 19.5863L21.8378 19.4387L24.1106 4.47998L26.3833 19.4387L32.0578 20.5074C32.1066 20.5166 32.1562 20.5212 32.2059 20.5212H38.1605C38.5849 20.5212 38.9918 20.6898 39.2919 20.9899L40.815 22.5129C41.115 22.813 41.2836 23.22 41.2836 23.6443V27.5424C41.2836 27.7793 41.231 28.0133 41.1296 28.2274L40.7547 29.0187C40.5368 29.4787 40.0733 29.772 39.5643 29.772C37.7318 29.772 35.9386 30.3029 34.4014 31.3004L27.5058 35.7752C26.2583 43.0616 27.2627 50.826 26.8501 58.2552C26.8317 58.5858 26.6082 58.8687 26.2919 58.967L13.0304 63.0888C12.5413 63.2408 12.0089 63.1495 11.5985 62.8431Z" fill="#FF206E"/>
<path opacity="0.15" fill-rule="evenodd" clip-rule="evenodd" d="M25.4389 37.1532C26.2459 36.692 27.5055 35.7754 27.5055 35.7754C26.2569 43.0682 27.345 50.7252 26.8608 58.1291C26.8342 58.5357 26.5599 58.8838 26.1708 59.0047L15.7402 62.2466L18.55 57.5246L20.935 50.5992C21.5355 48.8557 21.9777 47.0616 22.2564 45.2387L23.3722 37.9405C23.3722 37.9405 24.6318 37.6144 25.4389 37.1532Z" fill="url(#paint2_linear_438_4968)"/>
<path fill-rule="evenodd" clip-rule="evenodd" d="M24.1106 4.47998L21.8379 19.4387L21.4403 22.0557C21.419 22.1962 21.493 22.3344 21.6227 22.3923C23.5304 23.2436 24.6909 23.2436 26.5986 22.3923C26.7283 22.3344 26.8023 22.1962 26.781 22.0557L26.3834 19.4387L24.1106 4.47998Z" fill="#C6EBFF"/>
<path d="M23.2045 26.4867C23.2665 26.5989 23.1671 26.7196 23.0417 26.6932C21.2391 26.3132 20.7113 26.3132 18.9087 26.6932C18.7833 26.7196 18.6838 26.5989 18.7458 26.4867C19.0198 25.991 19.7293 24.9849 20.9752 24.9849C22.2211 24.9849 22.9306 25.991 23.2045 26.4867Z" fill="#C6EBFF" stroke="#C6EBFF" stroke-width="0.32" stroke-linecap="round" stroke-linejoin="round"/>
</g>
</g>
<path d="M69.016 34.3C66.996 34.3 65.336 33.98 64.036 33.34C62.736 32.7 61.776 31.78 61.156 30.58C60.536 29.36 60.226 27.91 60.226 26.23V17.77C60.226 17.13 60.156 16.68 60.016 16.42C59.896 16.14 59.766 16 59.626 16H65.386C65.246 16.02 65.106 16.16 64.966 16.42C64.846 16.68 64.786 17.13 64.786 17.77V26.17C64.786 27.45 64.966 28.44 65.326 29.14C65.686 29.84 66.186 30.32 66.826 30.58C67.466 30.84 68.206 30.97 69.046 30.97H69.376C70.036 30.97 70.616 30.9 71.116 30.76C71.636 30.62 72.066 30.38 72.406 30.04C72.766 29.7 73.036 29.22 73.216 28.6C73.416 27.96 73.516 27.15 73.516 26.17V17.77C73.516 17.13 73.446 16.68 73.306 16.42C73.186 16.14 73.056 16 72.916 16H78.676C78.536 16.02 78.396 16.17 78.256 16.45C78.136 16.71 78.076 17.16 78.076 17.8V26.23C78.076 27.91 77.756 29.36 77.116 30.58C76.496 31.78 75.536 32.7 74.236 33.34C72.956 33.98 71.316 34.3 69.316 34.3H69.016ZM81.6865 34C81.8265 34 81.9665 33.86 82.1065 33.58C82.2465 33.3 82.3165 32.84 82.3165 32.2V17.8C82.3165 17.16 82.2465 16.71 82.1065 16.45C81.9665 16.17 81.8265 16.02 81.6865 16H87.5665C87.4265 16 87.3865 16.14 87.4465 16.42C87.5265 16.7 87.8565 17.18 88.4365 17.86C88.5965 18.02 88.8565 18.32 89.2165 18.76C89.5965 19.18 90.0465 19.69 90.5665 20.29C91.0865 20.89 91.6365 21.54 92.2165 22.24C92.8165 22.94 93.4165 23.64 94.0165 24.34C94.6365 25.04 95.2265 25.71 95.7865 26.35H95.8165V17.8C95.8165 17.16 95.7465 16.71 95.6065 16.45C95.4665 16.17 95.3265 16.02 95.1865 16H101.067C100.927 16 100.787 16.14 100.647 16.42C100.507 16.7 100.437 17.17 100.437 17.83V32.2C100.437 32.84 100.507 33.3 100.647 33.58C100.787 33.86 100.927 34 101.067 34H95.9065C96.0265 34 96.0365 33.86 95.9365 33.58C95.8565 33.3 95.5465 32.82 95.0065 32.14C94.7265 31.78 94.3565 31.32 93.8965 30.76C93.4365 30.18 92.9165 29.54 92.3365 28.84C91.7765 28.14 91.1865 27.41 90.5665 26.65C89.9465 25.89 89.3265 25.15 88.7065 24.43C88.1065 23.69 87.5465 23.01 87.0265 22.39H86.9365V32.2C86.9365 32.84 87.0065 33.3 87.1465 33.58C87.2865 33.86 87.4265 34 87.5665 34H81.6865ZM104.069 34C104.209 34 104.339 33.87 104.459 33.61C104.599 33.33 104.669 32.86 104.669 32.2V17.8C104.669 17.16 104.599 16.7 104.459 16.42C104.339 16.14 104.209 16 104.069 16H109.859C109.719 16 109.579 16.14 109.439 16.42C109.299 16.68 109.229 17.15 109.229 17.83V32.2C109.229 32.84 109.299 33.3 109.439 33.58C109.579 33.86 109.719 34 109.859 34H104.069Z" fill="url(#paint3_linear_438_4968)"/>
<path d="M122.308 34.3C118.868 34.3 116.378 33.48 114.838 31.84C113.318 30.18 112.558 27.87 112.558 24.91C112.558 23.01 112.888 21.38 113.548 20.02C114.228 18.64 115.278 17.58 116.698 16.84C118.138 16.08 120.008 15.7 122.308 15.7H123.238C125.498 15.7 127.328 16.07 128.728 16.81C130.148 17.55 131.188 18.61 131.848 19.99C132.508 21.37 132.838 23.01 132.838 24.91C132.838 27.87 132.078 30.18 130.558 31.84C129.038 33.48 126.598 34.3 123.238 34.3H122.308ZM122.608 30.97H122.938C124.158 30.97 125.158 30.77 125.938 30.37C126.738 29.97 127.328 29.33 127.708 28.45C128.088 27.55 128.278 26.37 128.278 24.91C128.278 23.49 128.078 22.35 127.678 21.49C127.298 20.61 126.708 19.98 125.908 19.6C125.128 19.2 124.138 19 122.938 19H122.608C121.368 19 120.338 19.21 119.518 19.63C118.698 20.03 118.088 20.66 117.688 21.52C117.308 22.38 117.118 23.51 117.118 24.91C117.118 26.37 117.318 27.55 117.718 28.45C118.138 29.33 118.748 29.97 119.548 30.37C120.368 30.77 121.388 30.97 122.608 30.97ZM129.568 39.46C128.508 39.46 127.598 39.28 126.838 38.92C126.098 38.58 125.448 38.15 124.888 37.63C124.348 37.13 123.848 36.62 123.388 36.1C122.948 35.6 122.518 35.17 122.098 34.81C121.678 34.47 121.218 34.3 120.718 34.3C120.438 34.3 120.218 34.38 120.058 34.54C119.918 34.72 119.848 35.03 119.848 35.47C119.848 35.81 119.878 36.11 119.938 36.37C120.018 36.65 120.088 36.86 120.148 37C119.828 36.8 119.398 36.6 118.858 36.4C118.338 36.2 117.858 36.1 117.418 36.1C117.418 35.04 117.798 34.23 118.558 33.67C119.318 33.09 120.238 32.8 121.318 32.8C122.398 32.8 123.348 32.95 124.168 33.25C124.988 33.53 125.708 33.88 126.328 34.3C126.948 34.72 127.498 35.14 127.978 35.56C128.458 35.98 128.898 36.33 129.298 36.61C129.698 36.91 130.098 37.06 130.498 37.06C130.818 37.06 131.038 36.97 131.158 36.79C131.298 36.63 131.368 36.41 131.368 36.13C131.368 35.73 131.298 35.36 131.158 35.02C131.038 34.7 130.908 34.46 130.768 34.3H133.798C133.798 34.86 133.728 35.44 133.588 36.04C133.468 36.64 133.248 37.2 132.928 37.72C132.608 38.24 132.178 38.66 131.638 38.98C131.098 39.3 130.408 39.46 129.568 39.46ZM145.276 34.3C143.256 34.3 141.596 33.98 140.296 33.34C138.996 32.7 138.036 31.78 137.416 30.58C136.796 29.36 136.486 27.91 136.486 26.23V17.77C136.486 17.13 136.416 16.68 136.276 16.42C136.156 16.14 136.026 16 135.886 16H141.646C141.506 16.02 141.366 16.16 141.226 16.42C141.106 16.68 141.046 17.13 141.046 17.77V26.17C141.046 27.45 141.226 28.44 141.586 29.14C141.946 29.84 142.446 30.32 143.086 30.58C143.726 30.84 144.466 30.97 145.306 30.97H145.636C146.296 30.97 146.876 30.9 147.376 30.76C147.896 30.62 148.326 30.38 148.666 30.04C149.026 29.7 149.296 29.22 149.476 28.6C149.676 27.96 149.776 27.15 149.776 26.17V17.77C149.776 17.13 149.706 16.68 149.566 16.42C149.446 16.14 149.316 16 149.176 16H154.936C154.796 16.02 154.656 16.17 154.516 16.45C154.396 16.71 154.336 17.16 154.336 17.8V26.23C154.336 27.91 154.016 29.36 153.376 30.58C152.756 31.78 151.796 32.7 150.496 33.34C149.216 33.98 147.576 34.3 145.576 34.3H145.276ZM157.946 34C158.086 34 158.226 33.86 158.366 33.58C158.506 33.3 158.576 32.84 158.576 32.2V17.8C158.576 17.16 158.506 16.71 158.366 16.45C158.226 16.17 158.086 16.02 157.946 16H175.466V16.9L176.066 20.38C175.566 20.16 174.686 19.93 173.426 19.69C172.166 19.43 170.646 19.3 168.866 19.3H164.426C163.826 19.3 163.466 19.35 163.346 19.45C163.246 19.53 163.196 19.78 163.196 20.2V22.42C163.196 22.86 163.246 23.12 163.346 23.2C163.466 23.28 163.816 23.32 164.396 23.32H168.716C169.876 23.32 170.806 23.26 171.506 23.14C172.226 23 172.696 22.86 172.916 22.72C172.836 23.1 172.746 23.54 172.646 24.04C172.546 24.54 172.466 25.02 172.406 25.48C172.346 25.94 172.316 26.32 172.316 26.62H164.396C163.816 26.62 163.466 26.66 163.346 26.74C163.246 26.8 163.196 27.06 163.196 27.52V29.74C163.196 30.2 163.246 30.47 163.346 30.55C163.446 30.63 163.796 30.67 164.396 30.67H172.496C173.656 30.67 174.586 30.54 175.286 30.28C176.006 30 176.476 29.73 176.696 29.47L176.096 33.07V34H157.946ZM188.526 34.3C186.346 34.3 184.416 34.2 182.736 34C181.056 33.8 179.846 33.6 179.106 33.4V32.5L178.506 28.69C178.886 29.01 179.516 29.35 180.396 29.71C181.276 30.07 182.406 30.38 183.786 30.64C185.166 30.88 186.766 31 188.586 31C189.706 31 190.566 30.93 191.166 30.79C191.766 30.63 192.176 30.41 192.396 30.13C192.616 29.85 192.726 29.52 192.726 29.14C192.726 28.66 192.566 28.29 192.246 28.03C191.926 27.75 191.346 27.52 190.506 27.34C189.686 27.16 188.516 26.97 186.996 26.77C185.176 26.53 183.656 26.2 182.436 25.78C181.216 25.36 180.306 24.77 179.706 24.01C179.106 23.23 178.806 22.2 178.806 20.92C178.806 19.88 179.076 18.97 179.616 18.19C180.156 17.41 181.026 16.8 182.226 16.36C183.426 15.92 185.016 15.7 186.996 15.7C189.076 15.7 190.856 15.8 192.336 16C193.816 16.2 194.836 16.4 195.396 16.6V17.5L196.296 20.8C195.796 20.54 195.076 20.27 194.136 19.99C193.196 19.71 192.106 19.48 190.866 19.3C189.626 19.1 188.286 19 186.846 19C185.946 19 185.246 19.08 184.746 19.24C184.246 19.38 183.886 19.59 183.666 19.87C183.466 20.13 183.366 20.46 183.366 20.86C183.366 21.34 183.546 21.73 183.906 22.03C184.286 22.31 184.896 22.54 185.736 22.72C186.576 22.9 187.706 23.07 189.126 23.23C191.306 23.47 192.986 23.83 194.166 24.31C195.346 24.79 196.156 25.41 196.596 26.17C197.056 26.91 197.286 27.81 197.286 28.87C197.286 29.79 197.116 30.6 196.776 31.3C196.436 31.98 195.906 32.54 195.186 32.98C194.486 33.42 193.576 33.75 192.456 33.97C191.356 34.19 190.046 34.3 188.526 34.3ZM205.747 34C205.887 34 206.027 33.86 206.167 33.58C206.307 33.3 206.377 32.84 206.377 32.2V20.2C206.377 19.76 206.327 19.5 206.227 19.42C206.127 19.34 205.777 19.3 205.177 19.3H202.987C201.827 19.3 200.887 19.43 200.167 19.69C199.467 19.93 199.007 20.16 198.787 20.38L199.387 16.9V16H217.987V16.9L218.587 20.38C218.367 20.16 217.897 19.93 217.177 19.69C216.477 19.43 215.547 19.3 214.387 19.3H212.227C211.607 19.3 211.247 19.34 211.147 19.42C211.047 19.5 210.997 19.76 210.997 20.2V32.2C210.997 32.84 211.067 33.3 211.207 33.58C211.347 33.86 211.487 34 211.627 34H205.747Z" fill="#FF206E"/>
<defs>
<linearGradient id="paint0_linear_438_4968" x1="0.00390625" y1="0" x2="49.8589" y2="2.01092" gradientUnits="userSpaceOnUse">
<stop stop-color="#1D1E2C"/>
<stop offset="1" stop-color="#0B0C1B"/>
</linearGradient>
<linearGradient id="paint1_linear_438_4968" x1="0.00390625" y1="0" x2="49.8589" y2="2.01092" gradientUnits="userSpaceOnUse">
<stop stop-color="#1D1E2C"/>
<stop offset="1" stop-color="#0B0C1B"/>
</linearGradient>
<linearGradient id="paint2_linear_438_4968" x1="15.7402" y1="35.7754" x2="27.9762" y2="35.9947" gradientUnits="userSpaceOnUse">
<stop stop-color="#1D1E2C"/>
<stop offset="1" stop-color="#0B0C1B"/>
</linearGradient>
<linearGradient id="paint3_linear_438_4968" x1="58.002" y1="10" x2="217.498" y2="45.7161" gradientUnits="userSpaceOnUse">
<stop stop-color="#1D1E2C"/>
<stop offset="1" stop-color="#0B0C1B"/>
</linearGradient>
<clipPath id="clip0_438_4968">
<rect width="48" height="48" fill="white" transform="translate(0.00195312)"/>
</clipPath>
</defs>
</svg>
