<svg width="162" height="85" viewBox="0 0 162 85" fill="none" xmlns="http://www.w3.org/2000/svg">
<g clip-path="url(#clip0_505_983)">
<g clip-path="url(#clip1_505_983)">
<circle cx="81.002" cy="24" r="24" fill="url(#paint0_linear_505_983)"/>
<mask id="mask0_505_983" style="mask-type:alpha" maskUnits="userSpaceOnUse" x="57" y="0" width="49" height="48">
<circle cx="81.002" cy="24" r="24" fill="url(#paint1_linear_505_983)"/>
</mask>
<g mask="url(#mask0_505_983)">
<path d="M68.5965 62.8436L50.4758 49.3181C49.8735 48.8685 50.1674 47.9117 50.9182 47.8778L61.6976 47.3906C64.4085 47.2681 66.8321 45.6638 68.0038 43.2161L69.5882 39.9066C70.2077 38.6125 70.5293 37.1961 70.5293 35.7613V29.7725C69.5973 26.1681 68.4493 22.6682 67.0612 19.2201C66.9576 18.9629 67.2063 18.7023 67.4674 18.7956L72.3007 20.5217L73.6888 16.6178C73.7715 16.3852 74.0753 16.3299 74.2347 16.5184L76.8277 19.5868L78.8359 19.4392L81.1086 4.48047L83.3814 19.4392L89.0559 20.5079C89.1047 20.5171 89.1543 20.5217 89.2039 20.5217H95.1586C95.5829 20.5217 95.9899 20.6903 96.2899 20.9904L97.813 22.5134C98.1131 22.8135 98.2816 23.2205 98.2816 23.6448V27.5429C98.2816 27.7798 98.229 28.0137 98.1276 28.2278L97.7528 29.0192C97.5349 29.4792 97.0714 29.7725 96.5623 29.7725C94.7298 29.7725 92.9366 30.3034 91.3994 31.3009L84.5039 35.7757C83.2564 43.0621 84.2608 50.8265 83.8481 58.2557C83.8298 58.5863 83.6062 58.8692 83.29 58.9674L70.0285 63.0893C69.5393 63.2413 69.007 63.15 68.5965 62.8436Z" fill="#FF206E"/>
<path opacity="0.15" fill-rule="evenodd" clip-rule="evenodd" d="M82.4369 37.1532C83.244 36.692 84.5036 35.7754 84.5036 35.7754C83.255 43.0682 84.343 50.7252 83.8588 58.1291C83.8322 58.5357 83.5579 58.8838 83.1689 59.0047L72.7383 62.2466L75.548 57.5246L77.9331 50.5992C78.5335 48.8557 78.9758 47.0616 79.2545 45.2387L80.3702 37.9405C80.3702 37.9405 81.6298 37.6144 82.4369 37.1532Z" fill="url(#paint2_linear_505_983)"/>
<path fill-rule="evenodd" clip-rule="evenodd" d="M81.1087 4.48047L78.836 19.4392L78.4384 22.0562C78.417 22.1966 78.491 22.3349 78.6208 22.3928C80.5284 23.2441 81.689 23.2441 83.5966 22.3928C83.7264 22.3349 83.8004 22.1966 83.779 22.0562L83.3814 19.4392L81.1087 4.48047Z" fill="#C6EBFF"/>
<path d="M80.2026 26.4862C80.2646 26.5984 80.1652 26.7191 80.0397 26.6927C78.2371 26.3128 77.7094 26.3128 75.9067 26.6927C75.7813 26.7191 75.6819 26.5984 75.7439 26.4862C76.0178 25.9905 76.7273 24.9844 77.9732 24.9844C79.2191 24.9844 79.9286 25.9905 80.2026 26.4862Z" fill="#C6EBFF" stroke="#C6EBFF" stroke-width="0.32" stroke-linecap="round" stroke-linejoin="round"/>
</g>
</g>
<path d="M11.514 80.3C9.49402 80.3 7.83402 79.98 6.53402 79.34C5.23402 78.7 4.27402 77.78 3.65402 76.58C3.03402 75.36 2.72402 73.91 2.72402 72.23V63.77C2.72402 63.13 2.65402 62.68 2.51402 62.42C2.39402 62.14 2.26402 62 2.12402 62H7.88402C7.74402 62.02 7.60402 62.16 7.46402 62.42C7.34402 62.68 7.28402 63.13 7.28402 63.77V72.17C7.28402 73.45 7.46402 74.44 7.82402 75.14C8.18402 75.84 8.68402 76.32 9.32402 76.58C9.96402 76.84 10.704 76.97 11.544 76.97H11.874C12.534 76.97 13.114 76.9 13.614 76.76C14.134 76.62 14.564 76.38 14.904 76.04C15.264 75.7 15.534 75.22 15.714 74.6C15.914 73.96 16.014 73.15 16.014 72.17V63.77C16.014 63.13 15.944 62.68 15.804 62.42C15.684 62.14 15.554 62 15.414 62H21.174C21.034 62.02 20.894 62.17 20.754 62.45C20.634 62.71 20.574 63.16 20.574 63.8V72.23C20.574 73.91 20.254 75.36 19.614 76.58C18.994 77.78 18.034 78.7 16.734 79.34C15.454 79.98 13.814 80.3 11.814 80.3H11.514ZM24.1846 80C24.3246 80 24.4646 79.86 24.6046 79.58C24.7446 79.3 24.8146 78.84 24.8146 78.2V63.8C24.8146 63.16 24.7446 62.71 24.6046 62.45C24.4646 62.17 24.3246 62.02 24.1846 62H30.0646C29.9246 62 29.8846 62.14 29.9446 62.42C30.0246 62.7 30.3546 63.18 30.9346 63.86C31.0946 64.02 31.3546 64.32 31.7146 64.76C32.0946 65.18 32.5446 65.69 33.0646 66.29C33.5846 66.89 34.1346 67.54 34.7146 68.24C35.3146 68.94 35.9146 69.64 36.5146 70.34C37.1346 71.04 37.7246 71.71 38.2846 72.35H38.3146V63.8C38.3146 63.16 38.2446 62.71 38.1046 62.45C37.9646 62.17 37.8246 62.02 37.6846 62H43.5646C43.4246 62 43.2846 62.14 43.1446 62.42C43.0046 62.7 42.9346 63.17 42.9346 63.83V78.2C42.9346 78.84 43.0046 79.3 43.1446 79.58C43.2846 79.86 43.4246 80 43.5646 80H38.4046C38.5246 80 38.5346 79.86 38.4346 79.58C38.3546 79.3 38.0446 78.82 37.5046 78.14C37.2246 77.78 36.8546 77.32 36.3946 76.76C35.9346 76.18 35.4146 75.54 34.8346 74.84C34.2746 74.14 33.6846 73.41 33.0646 72.65C32.4446 71.89 31.8246 71.15 31.2046 70.43C30.6046 69.69 30.0446 69.01 29.5246 68.39H29.4346V78.2C29.4346 78.84 29.5046 79.3 29.6446 79.58C29.7846 79.86 29.9246 80 30.0646 80H24.1846ZM46.5674 80C46.7074 80 46.8374 79.87 46.9574 79.61C47.0974 79.33 47.1674 78.86 47.1674 78.2V63.8C47.1674 63.16 47.0974 62.7 46.9574 62.42C46.8374 62.14 46.7074 62 46.5674 62H52.3574C52.2174 62 52.0774 62.14 51.9374 62.42C51.7974 62.68 51.7274 63.15 51.7274 63.83V78.2C51.7274 78.84 51.7974 79.3 51.9374 79.58C52.0774 79.86 52.2174 80 52.3574 80H46.5674Z" fill="url(#paint3_linear_505_983)"/>
<path d="M64.8064 80.3C61.3664 80.3 58.8764 79.48 57.3364 77.84C55.8164 76.18 55.0564 73.87 55.0564 70.91C55.0564 69.01 55.3864 67.38 56.0464 66.02C56.7264 64.64 57.7764 63.58 59.1964 62.84C60.6364 62.08 62.5064 61.7 64.8064 61.7H65.7364C67.9964 61.7 69.8264 62.07 71.2264 62.81C72.6464 63.55 73.6864 64.61 74.3464 65.99C75.0064 67.37 75.3364 69.01 75.3364 70.91C75.3364 73.87 74.5764 76.18 73.0564 77.84C71.5364 79.48 69.0964 80.3 65.7364 80.3H64.8064ZM65.1064 76.97H65.4364C66.6564 76.97 67.6564 76.77 68.4364 76.37C69.2364 75.97 69.8264 75.33 70.2064 74.45C70.5864 73.55 70.7764 72.37 70.7764 70.91C70.7764 69.49 70.5764 68.35 70.1764 67.49C69.7964 66.61 69.2064 65.98 68.4064 65.6C67.6264 65.2 66.6364 65 65.4364 65H65.1064C63.8664 65 62.8364 65.21 62.0164 65.63C61.1964 66.03 60.5864 66.66 60.1864 67.52C59.8064 68.38 59.6164 69.51 59.6164 70.91C59.6164 72.37 59.8164 73.55 60.2164 74.45C60.6364 75.33 61.2464 75.97 62.0464 76.37C62.8664 76.77 63.8864 76.97 65.1064 76.97ZM72.0664 85.46C71.0064 85.46 70.0964 85.28 69.3364 84.92C68.5964 84.58 67.9464 84.15 67.3864 83.63C66.8464 83.13 66.3464 82.62 65.8864 82.1C65.4464 81.6 65.0164 81.17 64.5964 80.81C64.1764 80.47 63.7164 80.3 63.2164 80.3C62.9364 80.3 62.7164 80.38 62.5564 80.54C62.4164 80.72 62.3464 81.03 62.3464 81.47C62.3464 81.81 62.3764 82.11 62.4364 82.37C62.5164 82.65 62.5864 82.86 62.6464 83C62.3264 82.8 61.8964 82.6 61.3564 82.4C60.8364 82.2 60.3564 82.1 59.9164 82.1C59.9164 81.04 60.2964 80.23 61.0564 79.67C61.8164 79.09 62.7364 78.8 63.8164 78.8C64.8964 78.8 65.8464 78.95 66.6664 79.25C67.4864 79.53 68.2064 79.88 68.8264 80.3C69.4464 80.72 69.9964 81.14 70.4764 81.56C70.9564 81.98 71.3964 82.33 71.7964 82.61C72.1964 82.91 72.5964 83.06 72.9964 83.06C73.3164 83.06 73.5364 82.97 73.6564 82.79C73.7964 82.63 73.8664 82.41 73.8664 82.13C73.8664 81.73 73.7964 81.36 73.6564 81.02C73.5364 80.7 73.4064 80.46 73.2664 80.3H76.2964C76.2964 80.86 76.2264 81.44 76.0864 82.04C75.9664 82.64 75.7464 83.2 75.4264 83.72C75.1064 84.24 74.6764 84.66 74.1364 84.98C73.5964 85.3 72.9064 85.46 72.0664 85.46ZM87.7738 80.3C85.7538 80.3 84.0938 79.98 82.7938 79.34C81.4938 78.7 80.5338 77.78 79.9138 76.58C79.2938 75.36 78.9838 73.91 78.9838 72.23V63.77C78.9838 63.13 78.9138 62.68 78.7738 62.42C78.6538 62.14 78.5238 62 78.3838 62H84.1438C84.0038 62.02 83.8638 62.16 83.7238 62.42C83.6038 62.68 83.5438 63.13 83.5438 63.77V72.17C83.5438 73.45 83.7238 74.44 84.0838 75.14C84.4438 75.84 84.9438 76.32 85.5838 76.58C86.2238 76.84 86.9638 76.97 87.8038 76.97H88.1338C88.7938 76.97 89.3738 76.9 89.8738 76.76C90.3938 76.62 90.8238 76.38 91.1638 76.04C91.5238 75.7 91.7938 75.22 91.9738 74.6C92.1738 73.96 92.2738 73.15 92.2738 72.17V63.77C92.2738 63.13 92.2038 62.68 92.0638 62.42C91.9438 62.14 91.8138 62 91.6738 62H97.4338C97.2938 62.02 97.1538 62.17 97.0138 62.45C96.8938 62.71 96.8338 63.16 96.8338 63.8V72.23C96.8338 73.91 96.5138 75.36 95.8738 76.58C95.2538 77.78 94.2938 78.7 92.9938 79.34C91.7138 79.98 90.0738 80.3 88.0738 80.3H87.7738ZM100.444 80C100.584 80 100.724 79.86 100.864 79.58C101.004 79.3 101.074 78.84 101.074 78.2V63.8C101.074 63.16 101.004 62.71 100.864 62.45C100.724 62.17 100.584 62.02 100.444 62H117.964V62.9L118.564 66.38C118.064 66.16 117.184 65.93 115.924 65.69C114.664 65.43 113.144 65.3 111.364 65.3H106.924C106.324 65.3 105.964 65.35 105.844 65.45C105.744 65.53 105.694 65.78 105.694 66.2V68.42C105.694 68.86 105.744 69.12 105.844 69.2C105.964 69.28 106.314 69.32 106.894 69.32H111.214C112.374 69.32 113.304 69.26 114.004 69.14C114.724 69 115.194 68.86 115.414 68.72C115.334 69.1 115.244 69.54 115.144 70.04C115.044 70.54 114.964 71.02 114.904 71.48C114.844 71.94 114.814 72.32 114.814 72.62H106.894C106.314 72.62 105.964 72.66 105.844 72.74C105.744 72.8 105.694 73.06 105.694 73.52V75.74C105.694 76.2 105.744 76.47 105.844 76.55C105.944 76.63 106.294 76.67 106.894 76.67H114.994C116.154 76.67 117.084 76.54 117.784 76.28C118.504 76 118.974 75.73 119.194 75.47L118.594 79.07V80H100.444ZM131.024 80.3C128.844 80.3 126.914 80.2 125.234 80C123.554 79.8 122.344 79.6 121.604 79.4V78.5L121.004 74.69C121.384 75.01 122.014 75.35 122.894 75.71C123.774 76.07 124.904 76.38 126.284 76.64C127.664 76.88 129.264 77 131.084 77C132.204 77 133.064 76.93 133.664 76.79C134.264 76.63 134.674 76.41 134.894 76.13C135.114 75.85 135.224 75.52 135.224 75.14C135.224 74.66 135.064 74.29 134.744 74.03C134.424 73.75 133.844 73.52 133.004 73.34C132.184 73.16 131.014 72.97 129.494 72.77C127.674 72.53 126.154 72.2 124.934 71.78C123.714 71.36 122.804 70.77 122.204 70.01C121.604 69.23 121.304 68.2 121.304 66.92C121.304 65.88 121.574 64.97 122.114 64.19C122.654 63.41 123.524 62.8 124.724 62.36C125.924 61.92 127.514 61.7 129.494 61.7C131.574 61.7 133.354 61.8 134.834 62C136.314 62.2 137.334 62.4 137.894 62.6V63.5L138.794 66.8C138.294 66.54 137.574 66.27 136.634 65.99C135.694 65.71 134.604 65.48 133.364 65.3C132.124 65.1 130.784 65 129.344 65C128.444 65 127.744 65.08 127.244 65.24C126.744 65.38 126.384 65.59 126.164 65.87C125.964 66.13 125.864 66.46 125.864 66.86C125.864 67.34 126.044 67.73 126.404 68.03C126.784 68.31 127.394 68.54 128.234 68.72C129.074 68.9 130.204 69.07 131.624 69.23C133.804 69.47 135.484 69.83 136.664 70.31C137.844 70.79 138.654 71.41 139.094 72.17C139.554 72.91 139.784 73.81 139.784 74.87C139.784 75.79 139.614 76.6 139.274 77.3C138.934 77.98 138.404 78.54 137.684 78.98C136.984 79.42 136.074 79.75 134.954 79.97C133.854 80.19 132.544 80.3 131.024 80.3ZM148.245 80C148.385 80 148.525 79.86 148.665 79.58C148.805 79.3 148.875 78.84 148.875 78.2V66.2C148.875 65.76 148.825 65.5 148.725 65.42C148.625 65.34 148.275 65.3 147.675 65.3H145.485C144.325 65.3 143.385 65.43 142.665 65.69C141.965 65.93 141.505 66.16 141.285 66.38L141.885 62.9V62H160.485V62.9L161.085 66.38C160.865 66.16 160.395 65.93 159.675 65.69C158.975 65.43 158.045 65.3 156.885 65.3H154.725C154.105 65.3 153.745 65.34 153.645 65.42C153.545 65.5 153.495 65.76 153.495 66.2V78.2C153.495 78.84 153.565 79.3 153.705 79.58C153.845 79.86 153.985 80 154.125 80H148.245Z" fill="#FF206E"/>
</g>
<defs>
<linearGradient id="paint0_linear_505_983" x1="57.002" y1="0" x2="106.857" y2="2.01092" gradientUnits="userSpaceOnUse">
<stop stop-color="#1D1E2C"/>
<stop offset="1" stop-color="#0B0C1B"/>
</linearGradient>
<linearGradient id="paint1_linear_505_983" x1="57.002" y1="0" x2="106.857" y2="2.01092" gradientUnits="userSpaceOnUse">
<stop stop-color="#1D1E2C"/>
<stop offset="1" stop-color="#0B0C1B"/>
</linearGradient>
<linearGradient id="paint2_linear_505_983" x1="72.7383" y1="35.7754" x2="84.9742" y2="35.9947" gradientUnits="userSpaceOnUse">
<stop stop-color="#1D1E2C"/>
<stop offset="1" stop-color="#0B0C1B"/>
</linearGradient>
<linearGradient id="paint3_linear_505_983" x1="0.5" y1="56" x2="159.996" y2="91.7161" gradientUnits="userSpaceOnUse">
<stop stop-color="#1D1E2C"/>
<stop offset="1" stop-color="#0B0C1B"/>
</linearGradient>
<clipPath id="clip0_505_983">
<rect width="161" height="85" fill="white" transform="translate(0.5)"/>
</clipPath>
<clipPath id="clip1_505_983">
<rect width="48" height="48" fill="white" transform="translate(57)"/>
</clipPath>
</defs>
</svg>
