<svg width="392" height="392" viewBox="0 0 392 392" fill="none" xmlns="http://www.w3.org/2000/svg">
<g clip-path="url(#clip0_631_10513)">
<path d="M94.689 513.222L-53.2967 402.764C-58.2155 399.092 -55.8154 391.278 -49.6838 391.001L38.3481 387.022C60.4872 386.022 80.2795 372.92 89.8488 352.931L102.788 325.903C107.847 315.335 110.473 303.767 110.473 292.05V243.142C102.862 213.706 93.4868 185.123 82.1504 156.963C81.3049 154.863 83.3359 152.735 85.4681 153.497L124.94 167.594L136.276 135.711C136.951 133.811 139.432 133.36 140.734 134.9L161.91 159.958L178.31 158.753L196.871 36.5898L215.432 158.753L261.774 167.481C262.172 167.556 262.577 167.594 262.983 167.594H311.612C315.078 167.594 318.401 168.97 320.852 171.421L333.29 183.859C335.741 186.309 337.117 189.633 337.117 193.099V224.933C337.117 226.868 336.688 228.778 335.86 230.527L332.798 236.989C331.019 240.746 327.234 243.142 323.076 243.142C308.111 243.142 293.466 247.477 280.913 255.623L224.599 292.168C214.411 351.673 222.614 415.082 219.244 475.754C219.094 478.454 217.268 480.764 214.686 481.567L106.383 515.228C102.389 516.47 98.0412 515.724 94.689 513.222Z" fill="#FF206E"/>
<path opacity="0.15" fill-rule="evenodd" clip-rule="evenodd" d="M207.733 303.417C214.324 299.651 224.611 292.165 224.611 292.165C214.414 351.723 223.299 414.255 219.345 474.721C219.128 478.041 216.888 480.883 213.711 481.871L128.527 508.347L151.474 469.784L170.951 413.226C175.855 398.987 179.467 384.335 181.743 369.449L190.855 309.847C190.855 309.847 201.142 307.183 207.733 303.417Z" fill="url(#paint0_linear_631_10513)"/>
<path fill-rule="evenodd" clip-rule="evenodd" d="M196.887 36.5898L178.326 158.753L175.079 180.125C174.905 181.272 175.509 182.401 176.569 182.874C192.148 189.826 201.626 189.826 217.205 182.874C218.265 182.401 218.869 181.272 218.695 180.125L215.448 158.753L196.887 36.5898Z" fill="#C6EBFF"/>
<path d="M189.472 216.304C189.978 217.221 189.166 218.206 188.142 217.99C173.42 214.888 169.11 214.888 154.389 217.99C153.365 218.206 152.553 217.221 153.059 216.304C155.296 212.256 161.09 204.039 171.265 204.039C181.44 204.039 187.234 212.256 189.472 216.304Z" fill="#C6EBFF" stroke="#C6EBFF" stroke-width="2.61333" stroke-linecap="round" stroke-linejoin="round"/>
</g>
<defs>
<linearGradient id="paint0_linear_631_10513" x1="128.527" y1="292.165" x2="228.454" y2="293.956" gradientUnits="userSpaceOnUse">
<stop stop-color="#1D1E2C"/>
<stop offset="1" stop-color="#0B0C1B"/>
</linearGradient>
<clipPath id="clip0_631_10513">
<rect width="392" height="392" fill="white"/>
</clipPath>
</defs>
</svg>
