<svg width="40" height="40" viewBox="0 0 40 40" fill="none" xmlns="http://www.w3.org/2000/svg">
<path d="M20 5C11.75 5 5 11.75 5 20C5 28.25 11.75 35 20 35C28.25 35 35 28.25 35 20C35 11.75 28.25 5 20 5ZM27.35 14.15L24.8 26.45C24.65 27.35 24.05 27.5 23.45 27.05L19.55 24.05C18.65 24.95 17.75 25.7 17.6 26C17.3 26.15 17.15 26.45 16.85 26.45C16.4 26.45 16.4 26.15 16.25 25.85L14.9 21.35L10.85 20C9.95 19.7 9.95 19.1 11 18.65L26.3 12.8C26.9 12.65 27.65 12.95 27.35 14.15ZM23.75 15.5L15.2 20.9L16.55 25.4L16.85 22.4L24.2 15.8C24.65 15.35 24.35 15.35 23.75 15.5Z" fill="url(#paint0_linear_436_339)"/>
<defs>
<linearGradient id="paint0_linear_436_339" x1="20" y1="5" x2="20" y2="35" gradientUnits="userSpaceOnUse">
<stop stop-color="#2AABEE"/>
<stop offset="1" stop-color="#229ED9"/>
</linearGradient>
</defs>
</svg>
