<svg width="40" height="40" viewBox="0 0 40 40" fill="none" xmlns="http://www.w3.org/2000/svg">
<path d="M16.3253 8.06666C15.9421 8.01192 15.9238 7.99367 16.1063 7.97542C16.453 7.92068 17.2559 7.99367 17.8216 8.12141C19.1355 8.43163 20.3216 9.23454 21.5808 10.6397L21.9092 11.0229L22.3837 10.9499C24.4092 10.6214 26.4895 10.8769 28.2231 11.6798C28.6975 11.8988 29.4457 12.3367 29.537 12.4462C29.5735 12.4827 29.6282 12.7199 29.6647 12.9572C29.7924 13.8148 29.7377 14.4535 29.464 14.9462C29.318 15.2199 29.318 15.2929 29.4092 15.5302C29.4822 15.7126 29.7012 15.8404 29.9019 15.8404C30.3399 15.8404 30.7961 15.1469 31.0151 14.1798L31.1063 13.7966L31.2705 13.9791C32.2012 15.0192 32.9311 16.4608 33.0406 17.4827L33.0771 17.7564L32.9129 17.5192C32.6391 17.0995 32.3837 16.8258 32.037 16.5886C31.4165 16.1688 30.7596 16.0411 29.026 15.9499C27.4567 15.8586 26.5625 15.7309 25.6866 15.4389C24.1902 14.9462 23.4238 14.3075 21.6538 11.9535C20.8691 10.9134 20.3764 10.3477 19.8837 9.87323C18.807 8.83309 17.7304 8.28564 16.3253 8.06666Z" fill="#FF007A"/>
<path d="M29.9196 10.3835C29.9561 9.69004 30.0474 9.23383 30.2481 8.81413C30.3211 8.64989 30.3941 8.50391 30.4123 8.50391C30.4306 8.50391 30.3941 8.63164 30.3394 8.77763C30.1934 9.17909 30.1751 9.74478 30.2664 10.3835C30.3941 11.2046 30.4488 11.3141 31.3248 12.2083C31.7262 12.628 32.2007 13.1572 32.3831 13.3762L32.6934 13.7776L32.3831 13.4857C31.9999 13.1207 31.124 12.4273 30.9233 12.336C30.7956 12.263 30.7773 12.263 30.6861 12.3543C30.6131 12.4273 30.5948 12.5368 30.5948 13.0659C30.5766 13.8871 30.4671 14.3981 30.1934 14.9273C30.0474 15.201 30.0291 15.1462 30.1569 14.836C30.2481 14.5988 30.2664 14.4893 30.2664 13.7046C30.2664 12.117 30.0839 11.7338 28.9707 11.0951C28.697 10.9309 28.2226 10.6937 27.9488 10.5659C27.6569 10.4382 27.4379 10.3287 27.4561 10.3287C27.4926 10.2922 28.5693 10.6024 28.989 10.7849C29.6277 11.0404 29.7372 11.0586 29.8102 11.0404C29.8649 10.9857 29.9014 10.8397 29.9196 10.3835Z" fill="#FF007A"/>
<path d="M17.0711 13.1025C16.3046 12.0441 15.8119 10.4017 15.9214 9.17911L15.9579 8.7959L16.1404 8.83239C16.4689 8.88714 17.0346 9.10612 17.3083 9.27035C18.0382 9.70831 18.3667 10.3105 18.6769 11.8068C18.7682 12.2448 18.8959 12.7557 18.9506 12.92C19.0419 13.1937 19.3886 13.8324 19.6806 14.2339C19.8813 14.5258 19.7536 14.6718 19.2973 14.6353C18.6039 14.5623 17.6733 13.9236 17.0711 13.1025Z" fill="#FF007A"/>
<path d="M28.9882 21.0408C25.375 19.5809 24.0977 18.3218 24.0977 16.1868C24.0977 15.8766 24.1159 15.6211 24.1159 15.6211C24.1342 15.6211 24.2619 15.7306 24.4261 15.8583C25.1561 16.4423 25.9772 16.6977 28.2582 17.0262C29.5904 17.2269 30.3568 17.3729 31.0502 17.6101C33.2582 18.3401 34.6268 19.8364 34.9553 21.862C35.0466 22.4459 34.9918 23.559 34.8458 24.143C34.7181 24.5992 34.3531 25.4386 34.2619 25.4569C34.2436 25.4569 34.2071 25.3656 34.2071 25.2196C34.1706 24.4532 33.7874 23.7233 33.1487 23.1576C32.3823 22.5007 31.3969 22.008 28.9882 21.0408Z" fill="#FF007A"/>
<path d="M26.4329 21.6427C26.3964 21.369 26.3052 21.0222 26.2504 20.8763L26.1592 20.6025L26.3234 20.8033C26.5607 21.077 26.7431 21.4055 26.9074 21.8617C27.0351 22.2084 27.0351 22.3179 27.0351 22.8836C27.0351 23.431 27.0169 23.5587 26.9074 23.869C26.7249 24.3617 26.5059 24.7084 26.141 25.0916C25.484 25.7668 24.6264 26.1317 23.4037 26.296C23.1848 26.3142 22.5643 26.369 22.0169 26.4055C20.6483 26.4784 19.7359 26.6244 18.9147 26.9164C18.8052 26.9529 18.6957 26.9894 18.6775 26.9711C18.641 26.9347 19.2067 26.6062 19.6629 26.3872C20.3015 26.077 20.9585 25.9128 22.4001 25.6573C23.1118 25.5478 23.8417 25.4018 24.0242 25.3288C25.8307 24.7631 26.7249 23.358 26.4329 21.6427Z" fill="#FF007A"/>
<path d="M28.0935 24.5801C27.619 23.5399 27.5095 22.5545 27.765 21.6239C27.8015 21.5326 27.838 21.4414 27.8745 21.4414C27.911 21.4414 28.0205 21.4962 28.1299 21.5691C28.3489 21.7151 28.8051 21.9706 29.973 22.6093C31.4511 23.4122 32.2905 24.0326 32.8745 24.7443C33.3854 25.3648 33.6956 26.0764 33.8416 26.9524C33.9329 27.4451 33.8781 28.6312 33.7504 29.1239C33.3489 30.675 32.4365 31.9159 31.1044 32.6275C30.9037 32.737 30.7394 32.81 30.7212 32.81C30.7029 32.81 30.7759 32.6275 30.8854 32.4086C31.3234 31.4779 31.3781 30.5837 31.0497 29.5801C30.8489 28.9596 30.4292 28.2115 29.5898 26.9524C28.5862 25.4925 28.3489 25.1093 28.0935 24.5801Z" fill="#FF007A"/>
<path d="M14.4984 30.1645C15.8488 29.0331 17.5094 28.2302 19.0422 27.9747C19.6992 27.8652 20.7941 27.9017 21.3963 28.0659C22.3634 28.3214 23.2393 28.8689 23.6955 29.544C24.1335 30.201 24.3342 30.7667 24.5349 32.0258C24.6079 32.5185 24.6992 33.0294 24.7174 33.1389C24.8634 33.7959 25.1554 34.3068 25.5203 34.5805C26.086 35.0002 27.0714 35.0185 28.0386 34.6535C28.2028 34.5988 28.3488 34.544 28.3488 34.5623C28.3853 34.5988 27.8926 34.9272 27.5641 35.0915C27.1079 35.3287 26.743 35.4017 26.2503 35.4017C25.3744 35.4017 24.6262 34.9455 24.024 34.0331C23.8962 33.8506 23.6408 33.3214 23.4218 32.8287C22.7831 31.3506 22.4546 30.9127 21.7065 30.42C21.0495 30.0002 20.2101 29.909 19.5714 30.2192C18.732 30.6207 18.513 31.6973 19.097 32.3543C19.3342 32.628 19.7722 32.847 20.1371 32.9017C20.8123 32.9929 21.3963 32.4637 21.3963 31.7886C21.3963 31.3506 21.232 31.0951 20.7941 30.8944C20.2101 30.6389 19.5714 30.9309 19.5897 31.4966C19.5897 31.7338 19.6992 31.8798 19.9364 31.9893C20.0824 32.0623 20.0824 32.0623 19.9729 32.044C19.4437 31.9345 19.316 31.2776 19.7357 30.8579C20.2466 30.347 21.3233 30.5659 21.6882 31.2776C21.8342 31.5696 21.8525 32.1535 21.7247 32.5185C21.4145 33.3214 20.5386 33.7411 19.6444 33.5039C19.0422 33.3397 18.7868 33.1754 18.0568 32.4272C16.7795 31.1134 16.2868 30.8579 14.4619 30.5842L14.1152 30.5294L14.4984 30.1645Z" fill="#FF007A"/>
<path fill-rule="evenodd" clip-rule="evenodd" d="M4.90055 0.803226C9.15237 5.96746 15.7035 13.9966 16.0319 14.4346C16.3056 14.7996 16.1962 15.1463 15.74 15.4018C15.4845 15.5477 14.9553 15.6937 14.6998 15.6937C14.4078 15.6937 14.0611 15.5477 13.8239 15.3105C13.6597 15.1463 12.948 14.1061 11.3421 11.6061C10.1195 9.69008 9.07938 8.10249 9.06113 8.08424C8.98813 8.04775 8.98813 8.04775 11.2144 12.0258C12.6195 14.5258 13.0757 15.42 13.0757 15.5295C13.0757 15.7667 13.0027 15.8945 12.7108 16.2229C12.2181 16.7704 11.9991 17.3908 11.8348 18.6864C11.6524 20.128 11.1597 21.1499 9.75456 22.8835C8.93339 23.9054 8.80565 24.0879 8.60492 24.5076C8.34945 25.0185 8.27646 25.3105 8.23996 25.9674C8.20346 26.6609 8.27646 27.0988 8.47719 27.7558C8.65967 28.3397 8.8604 28.7229 9.3531 29.4711C9.77281 30.128 10.0283 30.6207 10.0283 30.8032C10.0283 30.9492 10.0648 30.9492 10.7217 30.8032C12.2911 30.4382 13.5867 29.8178 14.2984 29.0514C14.7363 28.5769 14.8458 28.3215 14.8458 27.6645C14.8458 27.2448 14.8275 27.1536 14.7181 26.8981C14.5356 26.4966 14.1889 26.1682 13.4407 25.6572C12.4553 24.982 12.0356 24.4346 11.9261 23.7047C11.8348 23.0842 11.9443 22.6645 12.4918 21.5149C13.0575 20.3288 13.2035 19.8361 13.2947 18.6317C13.3494 17.8653 13.4407 17.555 13.6597 17.3178C13.8969 17.0623 14.0976 16.9711 14.6633 16.8981C15.594 16.7704 16.1962 16.5331 16.6706 16.0769C17.0903 15.6937 17.2728 15.3105 17.291 14.7448L17.3093 14.3251L17.0721 14.0696C16.2144 13.0842 4.33485 0.0185547 4.28011 0.0185547C4.26186 0.0185547 4.55383 0.36527 4.90055 0.803226ZM10.5027 26.7521C10.7035 26.4054 10.594 25.9674 10.2655 25.7485C9.95529 25.5477 9.48083 25.639 9.48083 25.9127C9.48083 25.9857 9.51733 26.0587 9.62682 26.0952C9.79105 26.1864 9.8093 26.2777 9.68156 26.4784C9.55383 26.6791 9.55383 26.8616 9.71806 26.9893C9.97354 27.1901 10.3203 27.0806 10.5027 26.7521Z" fill="#FF007A"/>
<path fill-rule="evenodd" clip-rule="evenodd" d="M17.8937 17.153C17.4557 17.2807 17.036 17.7552 16.9083 18.2296C16.8353 18.5216 16.8718 19.0508 16.9995 19.215C17.2003 19.4705 17.3827 19.5435 17.8937 19.5435C18.8973 19.5435 19.755 19.1056 19.8463 18.5764C19.9375 18.1384 19.5543 17.5362 19.0251 17.2625C18.7514 17.1165 18.1857 17.0618 17.8937 17.153ZM19.0616 18.0654C19.2076 17.8464 19.1528 17.6092 18.8791 17.445C18.3864 17.1348 17.6382 17.3902 17.6382 17.8647C17.6382 18.1019 18.0214 18.3574 18.3864 18.3574C18.6236 18.3574 18.9521 18.2114 19.0616 18.0654Z" fill="#FF007A"/>
</svg>
