<svg width="40" height="40" viewBox="0 0 40 40" fill="none" xmlns="http://www.w3.org/2000/svg">
<path d="M36.4137 19.9283C36.4279 23.1421 35.4841 26.2879 33.7015 28.9681C31.9189 31.6482 29.3775 33.7422 26.3989 34.9852C23.4202 36.2283 20.138 36.5647 16.9672 35.9517C13.7964 35.3388 10.8795 33.8042 8.58534 31.5418C6.29114 29.2795 4.72268 26.3911 4.0783 23.2418C3.43392 20.0925 3.74255 16.8239 4.96517 13.8491C6.18779 10.8744 8.26949 8.3272 10.947 6.5296C13.6246 4.732 16.7777 3.76475 20.0078 3.75016C24.3394 3.73105 28.5013 5.42474 31.578 8.45868C34.6546 11.4926 36.3941 15.6183 36.4137 19.9283Z" fill="#8DC63F"/>
<path d="M35.1834 19.9311C35.197 22.9029 34.3246 25.8119 32.6765 28.2904C31.0285 30.7689 28.6788 32.7054 25.9246 33.8552C23.1704 35.0049 20.1354 35.3162 17.2034 34.7497C14.2713 34.1833 11.574 32.7644 9.4524 30.6726C7.33081 28.5808 5.88028 25.9101 5.28424 22.998C4.68819 20.086 4.97339 17.0635 6.10379 14.3127C7.23418 11.562 9.15899 9.2065 11.6348 7.54418C14.1106 5.88187 17.0263 4.98737 20.013 4.97379C21.9962 4.96478 23.9617 5.34451 25.7974 6.09131C27.6331 6.83811 29.3029 7.93736 30.7117 9.32628C32.1204 10.7152 33.2403 12.3666 34.0076 14.1862C34.7748 16.0058 35.1744 17.9579 35.1834 19.9311Z" fill="#F9E988"/>
<path d="M20.3574 5.94918C21.3175 5.77866 22.3003 5.77866 23.2604 5.94918C24.2296 6.102 25.1665 6.41446 26.0325 6.87374C26.8929 7.34458 27.638 7.98321 28.378 8.58589C29.1179 9.18856 29.8561 9.79809 30.5582 10.4692C31.2741 11.1291 31.899 11.8805 32.4166 12.7036C32.9504 13.5212 33.3875 14.3973 33.7193 15.3146C34.3648 17.1468 34.5486 19.1087 34.2544 21.0281H34.1581C33.8746 19.1944 33.4006 17.395 32.7436 15.6588C32.4287 14.8001 32.058 13.9628 31.6337 13.1522C31.1878 12.3439 30.6972 11.5608 30.1641 10.8065C29.6204 10.0431 28.9542 9.37389 28.1921 8.82559C27.4264 8.28284 26.5453 7.93013 25.6918 7.59626C24.8383 7.2624 23.9848 6.93024 23.0986 6.67513C22.2124 6.42002 21.3056 6.22997 20.3609 6.04506L20.3574 5.94918Z" fill="white"/>
<path d="M27.739 14.624C26.6429 14.3072 25.502 13.8604 24.356 13.4084C24.2906 13.1207 24.0342 12.7629 23.518 12.3263C22.766 11.6774 21.3549 11.6945 20.1349 11.9839C18.7893 11.6688 17.4591 11.5575 16.1771 11.8623C5.74059 14.7216 11.6601 21.7123 7.82617 28.7321C8.37166 29.8827 14.2516 36.608 22.7591 34.7982C22.7591 34.7982 19.851 27.8418 26.4157 24.5031C31.7415 21.7859 35.5909 16.7556 27.739 14.624Z" fill="#8BC53F"/>
<path d="M29.0301 19.1982C29.0312 19.3229 28.9949 19.4452 28.9261 19.5494C28.8572 19.6537 28.7587 19.7352 28.6432 19.7838C28.5277 19.8323 28.4003 19.8456 28.2772 19.822C28.1541 19.7984 28.0407 19.739 27.9516 19.6513C27.8624 19.5635 27.8015 19.4514 27.7764 19.3292C27.7514 19.2069 27.7634 19.08 27.8109 18.9646C27.8584 18.8491 27.9393 18.7503 28.0433 18.6806C28.1473 18.611 28.2698 18.5736 28.3952 18.5733C28.4781 18.5728 28.5603 18.5886 28.6371 18.6198C28.7139 18.6509 28.7838 18.6968 28.8427 18.7549C28.9017 18.8129 28.9486 18.8819 28.9808 18.958C29.0129 19.034 29.0297 19.1157 29.0301 19.1982Z" fill="white"/>
<path d="M20.1367 11.9808C20.8973 12.0356 23.6488 12.9294 24.3578 13.4088C23.771 11.6966 21.7766 11.4741 20.1367 11.9808Z" fill="#009345"/>
<path d="M20.8604 16.2974C20.8604 16.873 20.6888 17.4358 20.3674 17.9144C20.046 18.3931 19.5891 18.7662 19.0546 18.9865C18.52 19.2068 17.9318 19.2644 17.3644 19.1521C16.7969 19.0398 16.2757 18.7626 15.8666 18.3555C15.4575 17.9485 15.1789 17.4298 15.066 16.8652C14.9531 16.3006 15.011 15.7154 15.2324 15.1835C15.4539 14.6517 15.8288 14.1971 16.3099 13.8773C16.7909 13.5574 17.3565 13.3867 17.9351 13.3867C18.7109 13.3867 19.455 13.6934 20.0036 14.2392C20.5522 14.7851 20.8604 15.5254 20.8604 16.2974Z" fill="white"/>
<path d="M19.992 16.3238C19.9924 16.7282 19.8722 17.1237 19.6466 17.4601C19.421 17.7965 19.1003 18.0588 18.7249 18.2138C18.3495 18.3687 17.9363 18.4095 17.5376 18.3308C17.139 18.2521 16.7727 18.0575 16.4852 17.7717C16.1977 17.4859 16.0018 17.1216 15.9224 16.725C15.843 16.3284 15.8836 15.9173 16.039 15.5436C16.1945 15.17 16.4578 14.8506 16.7958 14.6259C17.1337 14.4012 17.531 14.2813 17.9374 14.2812C18.4819 14.2817 19.004 14.497 19.3891 14.8799C19.7743 15.2628 19.9911 15.7821 19.992 16.3238Z" fill="#58595B"/>
<path d="M31.3949 20.4775C29.0288 22.1365 26.3375 23.3881 22.5208 23.3881C20.7346 23.3881 20.3733 21.5048 19.1928 22.4259C18.5819 22.9036 16.4396 23.9668 14.7274 23.8915C13.0152 23.8162 10.2534 22.8146 9.48762 19.1934C9.18304 22.8146 9.02645 25.4821 7.66016 28.54C10.3824 32.8768 16.8715 36.2207 22.76 34.7825C22.1285 30.3857 25.9899 26.0779 28.1667 23.8744C28.9892 23.0406 30.5758 21.6777 31.3949 20.4706V20.4775Z" fill="#8BC53F"/>
<path d="M31.3012 20.5877C30.5474 21.2327 29.7063 21.7693 28.8026 22.1817C27.9018 22.6076 26.9627 22.9481 25.9978 23.1987C25.0341 23.447 24.0258 23.6336 23.0053 23.5412C21.9849 23.4487 20.9404 23.1029 20.2676 22.3427L20.3003 22.305C21.1331 22.8409 22.0847 23.0292 23.0346 23.0566C23.999 23.0845 24.9635 23.0047 25.91 22.8186C26.8662 22.6203 27.8018 22.3337 28.7046 21.9626C29.6219 21.614 30.4855 21.1391 31.2702 20.5518L31.3012 20.5877Z" fill="#58595B"/>
</svg>
