<svg width="40" height="40" viewBox="0 0 40 40" fill="none" xmlns="http://www.w3.org/2000/svg">
<path d="M10.5166 19.1971C10.5167 19.0154 10.5526 18.8355 10.6224 18.6676C10.6921 18.4999 10.7943 18.3475 10.9231 18.2193C11.052 18.0911 11.2048 17.9896 11.3729 17.9207C11.5411 17.8517 11.7212 17.8167 11.9029 17.8175L14.2012 17.825C14.5677 17.825 14.9191 17.9706 15.1782 18.2297C15.4373 18.4888 15.5829 18.8403 15.5829 19.2067V27.8971C15.8417 27.8203 16.174 27.7385 16.5376 27.6528C16.7902 27.5935 17.0153 27.4506 17.1764 27.2472C17.3375 27.0439 17.4251 26.792 17.4251 26.5326V15.7525C17.4251 15.386 17.5706 15.0345 17.8297 14.7754C18.0889 14.5162 18.4403 14.3706 18.8068 14.3705H21.1097C21.4761 14.3706 21.8276 14.5162 22.0867 14.7754C22.3458 15.0345 22.4914 15.386 22.4914 15.7525V25.7574C22.4914 25.7574 23.068 25.5241 23.6296 25.2871C23.8382 25.1989 24.0162 25.0511 24.1415 24.8624C24.2667 24.6736 24.3336 24.4522 24.3338 24.2256V12.2983C24.3338 11.9319 24.4793 11.5805 24.7384 11.3214C24.9974 11.0622 25.3488 10.9167 25.7152 10.9166H28.0181C28.3846 10.9166 28.736 11.0621 28.9951 11.3213C29.2542 11.5804 29.3998 11.9318 29.3998 12.2983V22.1202C31.3964 20.6732 33.4197 18.933 35.0253 16.8404C35.2584 16.5367 35.4125 16.18 35.474 15.8022C35.5355 15.4244 35.5026 15.0373 35.3782 14.6753C34.6349 12.5369 33.4537 10.5772 31.9096 8.92154C30.3655 7.26594 28.4928 5.95089 26.4113 5.06057C24.3298 4.17025 22.0854 3.72426 19.8217 3.75115C17.5579 3.77803 15.3248 4.2772 13.265 5.21669C11.2053 6.1562 9.36436 7.51534 7.86004 9.20716C6.35573 10.899 5.22117 12.8862 4.52896 15.0417C3.83675 17.1971 3.60213 19.4733 3.84013 21.7247C4.07812 23.976 4.78349 26.1529 5.91109 28.116C6.10752 28.4546 6.39651 28.7302 6.7441 28.9103C7.09169 29.0904 7.48345 29.1675 7.8734 29.1327C8.30899 29.0945 8.85133 29.0402 9.49616 28.9644C9.77686 28.9326 10.036 28.7986 10.2242 28.5879C10.4125 28.3772 10.5167 28.1047 10.5169 27.8222L10.5166 19.1971Z" fill="#21325B"/>
<path d="M10.4668 33.1374C12.8942 34.9033 15.7629 35.9633 18.7554 36.2001C21.7479 36.4367 24.7475 35.8411 27.4225 34.4786C30.0974 33.1162 32.3432 31.0405 33.9116 28.4809C35.4798 25.9213 36.3095 22.9778 36.3087 19.9759C36.3087 19.6013 36.2913 19.2307 36.2664 18.8623C30.3215 27.7288 19.3448 31.8739 10.4673 33.136" fill="#979695"/>
</svg>
