<svg width="40" height="40" viewBox="0 0 40 40" fill="none" xmlns="http://www.w3.org/2000/svg">
<path fill-rule="evenodd" clip-rule="evenodd" d="M16.4125 5.80945C14.4945 6.80249 12.9254 7.64279 12.9257 7.67697C12.9265 7.76518 17.5289 10.0818 17.6923 10.0762C17.7666 10.0737 18.3057 9.82706 18.8901 9.52817L19.953 8.98483L21.1138 9.57785L22.2745 10.171L24.1753 9.32203C27.0396 8.04281 27.3371 7.90263 27.2904 7.85553C27.2286 7.79305 26.2012 7.24451 23.414 5.78605C22.0669 5.08117 20.7595 4.39005 20.5085 4.2502C20.2575 4.11035 20.0179 3.99785 19.9761 4.00003C19.9342 4.00221 18.3306 4.81646 16.4125 5.80945ZM8.00022 10.1391L6.0036 11.1641V15.6628C6.0036 18.1371 6.02982 20.1614 6.06198 20.1614C6.09403 20.1614 7.07637 19.7382 8.2449 19.2209L10.3695 18.2804V13.5385L11.4078 14.1007C12.2078 14.5335 13.0083 14.9655 13.8093 15.3965L15.1726 16.1302L15.7793 15.8575C16.1597 15.6863 16.5394 15.5133 16.9184 15.3387C17.2112 15.2032 17.93 14.8814 18.5156 14.6236C19.1013 14.3656 19.6434 14.1061 19.7203 14.047C19.8224 13.9685 18.5772 13.2845 15.1146 11.5173C12.5045 10.1851 10.2853 9.0994 10.183 9.1046C10.0806 9.10981 9.09838 9.57527 8.00022 10.1391ZM27.6503 10.4269C26.2905 11.0371 25.1769 11.5607 25.1757 11.5905C25.1745 11.6204 25.9156 12.0583 26.8228 12.5637C27.7298 13.0692 28.472 13.5098 28.472 13.5429C28.472 13.576 27.6693 13.9626 26.6884 14.4021C25.7073 14.8415 23.2276 15.9545 21.1778 16.8755L14.3095 19.9612C12.5817 20.7374 11.0244 21.4371 10.8487 21.5162C7.31975 23.104 6.34978 23.5446 6.21657 23.6202C6.08263 23.6963 6.05229 24.1387 6.02845 26.3589L6 29.0069L7.78546 29.9111L9.57089 30.8152L12.0467 29.7047C13.4084 29.094 14.5224 28.5623 14.5224 28.5231C14.5224 28.4841 14.2708 28.3211 13.9634 28.1608C13.6558 28.0006 13.021 27.6458 12.5524 27.3723C12.0839 27.0988 11.6168 26.8479 11.5142 26.8146C11.4117 26.7814 11.3293 26.7233 11.331 26.6854C11.3327 26.6477 12.4229 26.133 13.7535 25.5416C16.338 24.3931 18.3159 23.5079 22.5621 21.5994C24.4608 20.7462 26.3598 19.8934 28.259 19.0413C29.9282 18.2924 31.8689 17.4179 32.5717 17.0978L33.8495 16.5159L33.8779 13.8377L33.9065 11.1597L32.0956 10.2359C31.0996 9.72781 30.2482 9.31336 30.2036 9.31487C30.159 9.31628 29.01 9.81665 27.6503 10.4269ZM33.3644 20.0887C33.0975 20.2182 32.5704 20.4608 32.193 20.6276C31.8157 20.7945 31.0996 21.1156 30.6017 21.3414L29.6966 21.7517L29.6759 24.1029C29.6645 25.396 29.6166 26.4483 29.5695 26.4414C29.4623 26.4256 27.7659 25.5609 26.0607 24.6527C24.8299 23.9973 24.7526 23.9713 24.4634 24.1136C24.2962 24.196 23.2968 24.6414 22.2426 25.1037C21.1884 25.5659 20.2915 25.9743 20.2493 26.0113C20.2073 26.0482 22.329 27.1911 24.9644 28.5513L29.7559 31.0243L31.8028 29.9719C32.9284 29.3932 33.8856 28.8653 33.9297 28.7989C34.0289 28.6496 34.0204 19.8326 33.9211 19.8445C33.8818 19.8492 33.6312 19.9591 33.3644 20.0887ZM22.0297 30.4376C21.6746 30.5893 21.3197 30.7412 20.9648 30.8934C19.8932 31.3541 20.1032 31.3694 18.8284 30.7386C17.9793 30.3185 17.6133 30.1889 17.4544 30.2518C17.3352 30.299 16.3097 30.7576 15.1752 31.2709C14.0408 31.7842 13.0733 32.2041 13.0251 32.2041C12.5492 32.2041 13.3405 32.674 16.3938 34.2049L19.9747 36L21.4814 35.2607C22.31 34.8541 23.9814 34.0398 25.1957 33.4513C26.4098 32.8626 27.3882 32.3657 27.3699 32.3469C27.3515 32.3283 26.3341 31.809 25.109 31.1931L22.8816 30.0734L22.0297 30.4376Z" fill="#05A3C9"/>
</svg>
