<svg width="40" height="40" viewBox="0 0 40 40" fill="none" xmlns="http://www.w3.org/2000/svg">
<g clip-path="url(#clip0_438_7134)">
<path fill-rule="evenodd" clip-rule="evenodd" d="M22.8786 7.81935L34.6943 13.7763C35.2403 14.0515 35.2488 14.8341 34.7089 15.1215L19.3632 23.2879C18.5074 23.7432 17.4866 23.7545 16.6212 23.3183L6.98512 18.4602C5.81161 17.9857 4.5 18.854 4.5 20.1616C4.5 21.2133 5.08928 22.1747 6.02217 22.645L15.6816 27.5149C16.2713 26.9096 17.0922 26.5342 18.0002 26.5342C18.8823 26.5342 19.6825 26.8886 20.268 27.4639L32.3002 21.0608C32.2672 20.8737 32.2501 20.681 32.2501 20.4842C32.2501 18.6744 33.7051 17.2073 35.5 17.2073C37.2949 17.2073 38.75 18.6744 38.75 20.4842C38.75 22.2941 37.2949 23.7612 35.5 23.7612C34.6223 23.7612 33.826 23.4104 33.2412 22.8403L21.2022 29.2469C21.2338 29.4303 21.2502 29.6188 21.2502 29.8112C21.2502 31.621 19.7951 33.0882 18.0002 33.0882C16.2053 33.0882 14.7502 31.621 14.7502 29.8112C14.7502 29.6437 14.7627 29.4792 14.7867 29.3185L4.98754 24.3782C3.46301 23.6097 2.5 22.0385 2.5 20.3199V19.3626C2.5 18.0537 3.21845 16.8523 4.3665 16.2415L20.1367 7.84973C20.9923 7.39439 22.0133 7.38308 22.8786 7.81935ZM18.0002 31.0716C18.6906 31.0716 19.2502 30.5073 19.2502 29.8112C19.2502 29.1151 18.6906 28.5509 18.0002 28.5509C17.3099 28.5509 16.7502 29.1151 16.7502 29.8112C16.7502 30.5073 17.3099 31.0716 18.0002 31.0716ZM36.75 20.4842C36.75 21.1804 36.1904 21.7447 35.5 21.7447C34.8097 21.7447 34.2501 21.1804 34.2501 20.4842C34.2501 19.7882 34.8097 19.2239 35.5 19.2239C36.1904 19.2239 36.75 19.7882 36.75 20.4842Z" fill="#638CF6"/>
</g>
<defs>
<clipPath id="clip0_438_7134">
<rect width="36.25" height="25.5882" fill="white" transform="translate(2.5 7.5)"/>
</clipPath>
</defs>
</svg>
