<svg width="40" height="40" viewBox="0 0 40 40" fill="none" xmlns="http://www.w3.org/2000/svg">
<path d="M31.5891 23.1807C31.0223 23.5271 30.3609 23.5901 29.8571 23.3067C29.2272 22.9288 28.8493 22.0785 28.8493 20.9133V17.3547C28.8493 15.6541 28.188 14.4259 27.0543 14.1109C25.1332 13.5441 23.6846 15.906 23.1492 16.7878L19.7481 22.236V15.5281C19.7166 13.985 19.2127 13.0717 18.2679 12.7883C17.6381 12.5993 16.6933 12.6938 15.78 14.0795L8.19041 26.2355C7.18265 24.3144 6.64729 22.173 6.64729 20C6.64729 12.6623 12.5363 6.71027 19.7481 6.71027C26.9598 6.71027 32.8488 12.6623 32.8488 20V20.0315V20.063C32.9118 21.4801 32.4709 22.6139 31.5891 23.1807ZM35.7461 20V19.9685V19.937C35.7146 11.0247 28.5344 3.75 19.7481 3.75C10.9302 3.75 3.75 11.0247 3.75 20C3.75 28.9438 10.9302 36.25 19.7481 36.25C23.8106 36.25 27.6526 34.7069 30.6129 31.9041C31.2112 31.3372 31.2427 30.4239 30.6759 29.8256C30.1405 29.2272 29.2272 29.1957 28.6289 29.7311C28.6289 29.7311 28.6289 29.7311 28.5974 29.7626C26.204 32.03 22.9918 33.3212 19.6851 33.3212C15.8115 33.3212 12.3474 31.6206 9.95397 28.9123L16.7878 17.953V23.0233C16.7878 25.4482 17.7326 26.2355 18.5199 26.4559C19.3072 26.6764 20.5039 26.5189 21.7951 24.4719L25.5426 18.3939C25.6686 18.2049 25.7631 18.016 25.889 17.89V20.9763C25.889 23.2437 26.8023 25.0702 28.3769 25.952C29.7941 26.7708 31.5891 26.6764 33.0693 25.7631C34.8958 24.5664 35.8721 22.4879 35.7461 20Z" fill="#17181B"/>
</svg>
