<svg width="48" height="48" viewBox="0 0 48 48" fill="none" xmlns="http://www.w3.org/2000/svg">
<g clip-path="url(#clip0_841_4467)">
<circle cx="24.002" cy="24" r="24" fill="url(#paint0_linear_841_4467)"/>
<mask id="mask0_841_4467" style="mask-type:alpha" maskUnits="userSpaceOnUse" x="0" y="0" width="49" height="48">
<circle cx="24.002" cy="24" r="24" fill="url(#paint1_linear_841_4467)"/>
</mask>
<g mask="url(#mask0_841_4467)">
<path d="M11.5965 62.8431L-6.52418 49.3176C-7.12647 48.868 -6.83258 47.9112 -6.08177 47.8773L4.69764 47.3901C7.40855 47.2676 9.83209 45.6633 11.0038 43.2156L12.5882 39.9061C13.2077 38.612 13.5293 37.1956 13.5293 35.7609V29.772C12.5973 26.1676 11.4493 22.6677 10.0612 19.2196C9.95765 18.9624 10.2063 18.7018 10.4674 18.7951L15.3007 20.5212L16.6888 16.6173C16.7715 16.3847 17.0753 16.3294 17.2347 16.518L19.8277 19.5863L21.8359 19.4387L24.1086 4.47998L26.3814 19.4387L32.0559 20.5074C32.1047 20.5166 32.1543 20.5212 32.2039 20.5212H38.1586C38.5829 20.5212 38.9899 20.6898 39.2899 20.9899L40.813 22.5129C41.1131 22.813 41.2816 23.22 41.2816 23.6443V27.5424C41.2816 27.7793 41.229 28.0133 41.1276 28.2274L40.7528 29.0187C40.5349 29.4787 40.0714 29.772 39.5623 29.772C37.7298 29.772 35.9366 30.3029 34.3994 31.3004L27.5039 35.7752C26.2564 43.0616 27.2608 50.826 26.8481 58.2552C26.8298 58.5858 26.6062 58.8687 26.29 58.967L13.0285 63.0888C12.5393 63.2408 12.007 63.1495 11.5965 62.8431Z" fill="#FF206E"/>
<path opacity="0.15" fill-rule="evenodd" clip-rule="evenodd" d="M25.4369 37.1532C26.244 36.692 27.5036 35.7754 27.5036 35.7754C26.255 43.0682 27.343 50.7252 26.8588 58.1291C26.8322 58.5357 26.5579 58.8838 26.1689 59.0047L15.7383 62.2466L18.548 57.5246L20.9331 50.5992C21.5335 48.8557 21.9758 47.0616 22.2545 45.2387L23.3702 37.9405C23.3702 37.9405 24.6298 37.6144 25.4369 37.1532Z" fill="url(#paint2_linear_841_4467)"/>
<path fill-rule="evenodd" clip-rule="evenodd" d="M24.1087 4.47998L21.836 19.4387L21.4384 22.0557C21.417 22.1962 21.491 22.3344 21.6208 22.3923C23.5284 23.2436 24.689 23.2436 26.5966 22.3923C26.7264 22.3344 26.8004 22.1962 26.779 22.0557L26.3814 19.4387L24.1087 4.47998Z" fill="#C6EBFF"/>
<path d="M23.2026 26.4867C23.2646 26.5989 23.1652 26.7196 23.0397 26.6932C21.2371 26.3132 20.7094 26.3132 18.9067 26.6932C18.7813 26.7196 18.6819 26.5989 18.7439 26.4867C19.0178 25.991 19.7273 24.9849 20.9732 24.9849C22.2191 24.9849 22.9286 25.991 23.2026 26.4867Z" fill="#C6EBFF" stroke="#C6EBFF" stroke-width="0.32" stroke-linecap="round" stroke-linejoin="round"/>
</g>
</g>
<defs>
<linearGradient id="paint0_linear_841_4467" x1="0.00195312" y1="0" x2="49.8569" y2="2.01092" gradientUnits="userSpaceOnUse">
<stop stop-color="#1D1E2C"/>
<stop offset="1" stop-color="#0B0C1B"/>
</linearGradient>
<linearGradient id="paint1_linear_841_4467" x1="0.00195312" y1="0" x2="49.8569" y2="2.01092" gradientUnits="userSpaceOnUse">
<stop stop-color="#1D1E2C"/>
<stop offset="1" stop-color="#0B0C1B"/>
</linearGradient>
<linearGradient id="paint2_linear_841_4467" x1="15.7383" y1="35.7754" x2="27.9742" y2="35.9947" gradientUnits="userSpaceOnUse">
<stop stop-color="#1D1E2C"/>
<stop offset="1" stop-color="#0B0C1B"/>
</linearGradient>
<clipPath id="clip0_841_4467">
<rect width="48" height="48" fill="white"/>
</clipPath>
</defs>
</svg>
